# Blender 4.4.1
# www.blender.org
mtllib wv.mtl
o torus
v 0.477869 2.067042 1.256057
v 0.510809 2.180427 1.299940
v 0.576691 2.180427 1.299940
v 0.609631 2.067042 1.256057
v 0.576691 1.953657 1.212175
v 0.510809 1.953657 1.212175
v 0.477869 2.122017 1.022636
v 0.510809 2.249685 1.005874
v 0.576691 2.249685 1.005874
v 0.609631 2.122017 1.022636
v 0.576691 1.994350 1.039398
v 0.510809 1.994350 1.039398
v 0.477869 1.139232 1.022636
v 0.510809 1.011565 1.005874
v 0.576691 1.011565 1.005874
v 0.609631 1.139232 1.022636
v 0.576691 1.266900 1.039397
v 0.510809 1.266900 1.039397
v 0.477869 1.194208 1.256057
v 0.510809 1.080823 1.299940
v 0.576691 1.080823 1.299940
v 0.609631 1.194208 1.256057
v 0.576691 1.307592 1.212174
v 0.510809 1.307592 1.212174
v 1.137019 2.602500 0.899039
v 1.137019 2.602500 -0.899039
v -1.137019 2.602500 0.899039
v -1.137019 2.602500 -0.899039
v 1.137019 0.727500 0.899039
v 1.137019 0.727500 -0.899039
v -1.137019 0.727500 0.899039
v -1.137019 0.727500 -0.899039
v -1.343750 0.883750 0.899039
v -1.343750 2.446250 0.899039
v -1.343750 0.883750 -0.899039
v -1.343750 2.446250 -0.899039
v 1.343750 0.883750 0.899039
v 1.343750 2.446250 0.899039
v 1.343750 0.883750 -0.899039
v 1.343750 2.446250 -0.899039
v 1.137019 0.883750 -1.062500
v 1.137019 2.446250 -1.062500
v -1.137019 0.883750 -1.062500
v -1.137019 2.446250 -1.062500
v 1.137019 0.883750 1.062500
v 1.137019 2.446250 1.062500
v -1.137019 0.883750 1.062500
v -1.137019 2.446250 1.062500
v -0.937500 2.446250 -1.062500
v -0.937500 0.883750 -1.062500
v -0.937500 0.727500 -0.899039
v -0.937500 0.727500 0.899039
v -0.937500 0.883750 1.062500
v -0.937500 2.446250 1.062500
v -0.937500 2.602500 0.899039
v -0.937500 2.602500 -0.899039
v -0.937500 2.602500 -0.000000
v 1.137019 2.602500 -0.000000
v 1.343750 2.446250 -0.000000
v 1.343750 0.883750 0.000000
v 1.137019 0.727500 0.000000
v -0.937500 0.727500 0.000000
v -1.137019 0.727500 0.000000
v -1.343750 0.883750 0.000000
v -1.343750 2.446250 -0.000000
v -1.137019 2.602500 -0.000000
v 0.474759 2.446250 1.062500
v 0.474759 0.883750 1.062500
v 0.474759 0.727500 0.899039
v 0.474759 0.727500 0.000000
v 0.474759 0.727500 -0.899039
v 0.474759 0.883750 -1.062500
v 0.474759 2.446250 -1.062500
v 0.474759 2.602500 -0.899039
v 0.474759 2.602500 -0.000000
v 0.474759 2.602500 0.899039
v 0.474759 2.227500 1.062500
v -0.937500 2.227500 1.062500
v -1.137019 2.227500 1.062500
v -1.343750 2.227500 0.899039
v -1.343750 2.227500 -0.000000
v -1.343750 2.227500 -0.899039
v -1.137019 2.227500 -1.062500
v -0.937500 2.227500 -1.062500
v 0.474759 2.227500 -1.062500
v 1.137019 2.227500 -1.062500
v 1.343750 2.227500 -0.899039
v 1.343750 2.227500 -0.000000
v 1.343750 2.227500 0.899039
v 1.137019 2.227500 1.062500
v 0.474759 1.055625 1.062500
v -0.937500 1.055625 1.062500
v -1.137019 1.055625 1.062500
v -1.343750 1.055625 0.899039
v -1.343750 1.055625 0.000000
v -1.343750 1.055625 -0.899039
v -1.137019 1.055625 -1.062500
v -0.937500 1.055625 -1.062500
v 0.474759 1.055625 -1.062500
v 1.137019 1.055625 -1.062500
v 1.343750 1.055625 -0.899039
v 1.343750 1.055625 0.000000
v 1.343750 1.055625 0.899039
v 1.137019 1.055625 1.062500
v 0.680889 1.055625 1.062500
v 0.680889 2.227500 1.062500
v 0.680889 2.446250 1.062500
v 0.680889 2.602500 0.899039
v 0.680889 2.602500 -0.000000
v 0.680889 2.602500 -0.899039
v 0.680889 2.446250 -1.062500
v 0.680889 2.227500 -1.062500
v 0.680889 1.055625 -1.062500
v 0.680889 0.883750 -1.062500
v 0.680889 0.727500 -0.899039
v 0.680889 0.727500 0.000000
v 0.680889 0.727500 0.899039
v 0.680889 0.883750 1.062500
v -0.866887 2.168906 1.031250
v 0.404147 1.114219 1.031250
v -0.866887 1.114219 1.031250
v 0.404147 2.168906 1.031250
v 0.680889 1.891562 1.062500
v 1.137019 1.891562 1.062500
v 1.343750 1.891562 0.899039
v 1.343750 1.891562 -0.000000
v 1.343750 1.891563 -0.899039
v 1.137019 1.891563 -1.062500
v 0.680889 1.891563 -1.062500
v 0.474759 1.891563 -1.062500
v -0.937500 1.891563 -1.062500
v -1.137019 1.891563 -1.062500
v -1.343750 1.891563 -0.899039
v -1.343750 1.891562 -0.000000
v -1.343750 1.891562 0.899039
v -1.137019 1.891562 1.062500
v -0.937500 1.891562 1.062500
v -0.866887 1.891562 1.031250
v 0.404147 1.891562 1.031250
v 0.474759 1.891562 1.062500
v 0.710538 2.205664 1.031250
v 0.710538 1.913398 1.031250
v 1.107371 1.913398 1.031250
v 1.107371 2.205664 1.031250
v -1.000000 2.227500 1.062500
v -0.929387 2.168906 1.031250
vn -0.9646 0.2568 0.0605
vn -0.0000 0.9734 0.2292
vn 0.9646 0.2568 0.0605
vn 0.9646 -0.2568 -0.0605
vn -0.0000 -0.9734 -0.2293
vn -0.9646 -0.2568 -0.0605
vn -0.9646 -0.2568 0.0605
vn -0.0000 -0.9734 0.2292
vn 0.9646 -0.2568 0.0605
vn 0.9646 0.2568 -0.0605
vn -0.0000 0.9734 -0.2292
vn -0.9646 0.2568 -0.0605
vn -0.7998 -0.0000 0.6003
vn -0.0000 -0.0000 1.0000
vn 0.7998 -0.0000 0.6003
vn 0.7998 -0.0000 -0.6003
vn -0.0000 -0.0000 -1.0000
vn -0.7998 -0.0000 -0.6003
vn -0.7997 -0.0000 -0.6003
vn 1.0000 -0.0000 -0.0000
vn -1.0000 -0.0000 -0.0000
vn -0.0000 1.0000 -0.0000
vn -0.0000 -1.0000 -0.0000
vn 0.6030 0.7978 -0.0000
vn -0.6030 0.7978 -0.0000
vn -0.0000 0.7229 0.6910
vn 0.6030 -0.7978 -0.0000
vn -0.6030 -0.7978 -0.0000
vn -0.0000 -0.7229 0.6910
vn 0.6202 -0.0000 -0.7844
vn 0.6202 -0.0000 0.7844
vn -0.6202 -0.0000 -0.7844
vn -0.6202 -0.0000 0.7844
vn 0.4795 -0.6344 0.6064
vn -0.4795 -0.6344 0.6064
vn 0.4795 -0.6344 -0.6064
vn -0.4795 -0.6344 -0.6064
vn 0.4795 0.6344 0.6064
vn -0.4795 0.6344 0.6064
vn 0.4795 0.6344 -0.6064
vn -0.4795 0.6344 -0.6064
vn -0.0000 -0.7229 -0.6910
vn -0.0000 0.7229 -0.6910
vn 0.4047 -0.0000 0.9145
vn -0.0000 0.4706 0.8824
vn -0.4047 -0.0000 0.9145
vn -0.4047 -0.0000 0.9144
vn -0.0000 -0.4706 0.8824
vn 0.7254 -0.0000 0.6883
vn -0.0000 0.8197 0.5728
vn -0.7255 -0.0000 0.6883
vn -0.0000 -0.8197 0.5728
vt 0.375000 0.904330
vt 0.340147 0.896775
vt 0.369267 0.889665
vt 0.492188 0.867188
vt 0.484375 0.906250
vt 0.484375 0.867188
vt 0.421875 0.951205
vt 0.456727 0.943651
vt 0.458561 0.960162
vt 0.427607 0.936540
vt 0.454894 0.927138
vt 0.456728 0.943651
vt 0.414062 0.937500
vt 0.406250 0.960938
vt 0.406250 0.937500
vt 0.341980 0.880263
vt 0.363535 0.875000
vt 0.376834 0.852450
vt 0.411687 0.844895
vt 0.405954 0.859560
vt 0.562500 0.320312
vt 0.554688 0.359375
vt 0.554688 0.320312
vt 0.417665 0.900099
vt 0.382812 0.892545
vt 0.419499 0.883587
vt 0.415831 0.916612
vt 0.388544 0.907210
vt 0.398438 0.937500
vt 0.390625 0.960938
vt 0.390625 0.937500
vt 0.378667 0.868963
vt 0.400222 0.874225
vt 0.484375 0.267348
vt 0.492188 0.390625
vt 0.484375 0.376452
vt 0.476562 0.250000
vt 0.468750 0.390625
vt 0.468750 0.250000
vt 0.507812 0.267348
vt 0.500000 0.390625
vt 0.500000 0.253175
vt 0.476562 0.866006
vt 0.468750 0.960938
vt 0.468750 0.851833
vt 0.437500 0.835938
vt 0.429688 0.914062
vt 0.429688 0.835938
vt 0.289062 0.422145
vt 0.281250 0.517077
vt 0.281250 0.436319
vt 0.297777 0.566406
vt 0.410156 0.593750
vt 0.297777 0.593750
vt 0.113281 0.503906
vt 0.225661 0.531250
vt 0.113281 0.531250
vt 0.203877 0.775241
vt 0.027344 0.887620
vt 0.027344 0.775241
vt 0.203877 0.651442
vt 0.027344 0.763822
vt 0.027344 0.651442
vt 0.324219 0.972656
vt 0.500752 1.000000
vt 0.324219 1.000000
vt 0.707031 0.858233
vt 0.594652 0.890625
vt 0.594652 0.858233
vt 0.707031 0.843750
vt 0.819411 0.811358
vt 0.819411 0.843750
vt 0.762470 0.424859
vt 0.585938 0.453125
vt 0.585938 0.424859
vt 0.707031 0.757812
vt 0.594652 0.790204
vt 0.594652 0.757812
vt 0.707031 0.743329
vt 0.819411 0.710938
vt 0.819411 0.743329
vt 0.762470 0.382812
vt 0.585938 0.411079
vt 0.585938 0.382812
vt 0.328125 0.363281
vt 0.361069 0.390625
vt 0.328125 0.390625
vt 0.381119 0.363281
vt 0.414062 0.390625
vt 0.381119 0.390625
vt 0.287369 0.363281
vt 0.320312 0.390625
vt 0.287369 0.390625
vt 0.234375 0.503906
vt 0.267319 0.531250
vt 0.234375 0.531250
vt 0.845252 0.382813
vt 0.874699 0.396308
vt 0.845252 0.411079
vt 0.560998 0.382812
vt 0.560998 0.411079
vt 0.531551 0.396308
vt 0.623498 0.898438
vt 0.623498 0.926704
vt 0.594051 0.911933
vt 0.907752 0.898438
vt 0.937199 0.911933
vt 0.907752 0.926704
vt 0.845252 0.453125
vt 0.845252 0.424859
vt 0.874699 0.439630
vt 0.560998 0.453125
vt 0.531551 0.439629
vt 0.560998 0.424859
vt 0.615685 0.968750
vt 0.586238 0.955254
vt 0.615685 0.940484
vt 0.899940 0.968750
vt 0.899940 0.940484
vt 0.929387 0.955255
vt 0.706280 0.926704
vt 0.882812 0.898438
vt 0.882812 0.926704
vt 0.698467 0.968750
vt 0.875000 0.940484
vt 0.875000 0.968750
vt 0.382061 0.769531
vt 0.558594 0.796875
vt 0.382061 0.796875
vt 0.558594 0.769531
vt 0.583534 0.796875
vt 0.002404 0.651442
vt 0.002404 0.763822
vt 0.299279 0.972656
vt 0.299279 1.000000
vt 0.002404 0.775241
vt 0.203877 0.887620
vt 0.027344 1.000000
vt 0.707031 0.890625
vt 0.819411 0.858233
vt 0.819411 0.890625
vt 0.410156 0.566406
vt 0.522536 0.593750
vt 0.707031 0.790204
vt 0.819411 0.757812
vt 0.819411 0.790204
vt 0.203877 0.539062
vt 0.027344 0.539062
vt 0.002404 0.539062
vt 0.707031 0.710938
vt 0.594652 0.743329
vt 0.594652 0.710938
vt 0.000902 0.503906
vt 0.000902 0.531250
vt 0.707031 0.811358
vt 0.594652 0.843750
vt 0.594652 0.811358
vt 0.002404 0.887620
vt 0.002404 1.000000
vt 0.526517 1.000000
vt 0.583534 0.972656
vt 0.583534 1.000000
vt 0.788236 0.411079
vt 0.845252 0.382812
vt 0.229642 0.763822
vt 0.286659 0.651442
vt 0.286659 0.763822
vt 0.229642 0.651442
vt 0.286659 0.539062
vt 0.680514 0.898438
vt 0.356295 0.769531
vt 0.299279 0.796875
vt 0.299279 0.769531
vt 0.672702 0.940484
vt 0.229642 1.000000
vt 0.286659 0.887620
vt 0.286659 1.000000
vt 0.229642 0.887620
vt 0.286659 0.775241
vt 0.788236 0.453125
vt 0.324219 0.930664
vt 0.299279 0.826172
vt 0.324219 0.826172
vt 0.267319 0.461914
vt 0.234375 0.357422
vt 0.267319 0.357422
vt 0.225661 0.461914
vt 0.113281 0.357422
vt 0.225661 0.357422
vt 0.113281 0.461914
vt 0.000902 0.357422
vt 0.320312 0.321289
vt 0.287369 0.216797
vt 0.320312 0.216797
vt 0.583534 0.727539
vt 0.558594 0.623047
vt 0.583534 0.623047
vt 0.558594 0.727539
vt 0.382061 0.623047
vt 0.356295 0.727539
vt 0.299279 0.623047
vt 0.356295 0.623047
vt 0.361069 0.321289
vt 0.328125 0.216797
vt 0.361069 0.216797
vt 0.522536 0.524414
vt 0.410156 0.419922
vt 0.522536 0.419922
vt 0.410156 0.524414
vt 0.297777 0.419922
vt 0.414062 0.321289
vt 0.381119 0.216797
vt 0.414062 0.216797
vt 0.583534 0.930664
vt 0.526517 0.826172
vt 0.583534 0.826172
vt 0.500752 0.826172
vt 0.324219 0.804688
vt 0.500752 0.804688
vt 0.299279 0.804688
vt 0.234375 0.335938
vt 0.267319 0.335938
vt 0.113281 0.335938
vt 0.225661 0.335938
vt 0.000902 0.335938
vt 0.287369 0.195312
vt 0.320312 0.195312
vt 0.558594 0.601562
vt 0.583534 0.601562
vt 0.382061 0.601562
vt 0.356295 0.601562
vt 0.299279 0.601562
vt 0.328125 0.195312
vt 0.361069 0.195312
vt 0.410156 0.398438
vt 0.522536 0.398438
vt 0.297777 0.398438
vt 0.381119 0.195312
vt 0.414062 0.195312
vt 0.583534 0.804688
vt 0.526517 0.930664
vt 0.526517 0.972656
vt 0.500752 0.972656
vt 0.788236 0.424859
vt 0.762470 0.453125
vt 0.229642 0.775241
vt 0.203877 1.000000
vt 0.672702 0.968750
vt 0.698467 0.940484
vt 0.356295 0.796875
vt 0.382061 0.727539
vt 0.680514 0.926704
vt 0.706280 0.898438
vt 0.229642 0.539062
vt 0.203877 0.763822
vt 0.788236 0.382812
vt 0.762470 0.411079
vt 0.526517 0.804688
vt 0.692721 0.559082
vt 0.533842 0.461914
vt 0.692721 0.461914
vt 0.460938 0.251465
vt 0.451285 0.348633
vt 0.451285 0.244141
vt 0.604154 1.000000
vt 0.771860 0.992188
vt 0.763033 1.000000
vt 0.431527 0.348633
vt 0.421875 0.251465
vt 0.431527 0.244141
vt 0.604154 0.976562
vt 0.771860 0.984375
vt 0.595327 0.984375
vt 0.335938 0.921875
vt 0.382812 0.960938
vt 0.335938 0.960938
vt 0.381119 0.321289
vt 0.414062 0.363281
vt 0.297777 0.524414
vt 0.522536 0.566406
vt 0.328125 0.321289
vt 0.361069 0.363281
vt 0.299279 0.727539
vt 0.583534 0.769531
vt 0.287369 0.321289
vt 0.320312 0.363281
vt 0.000902 0.461914
vt 0.225661 0.503906
vt 0.234375 0.461914
vt 0.267319 0.503906
vt 0.299279 0.930664
vt 0.460938 0.383301
vt 0.451285 0.390625
vt 0.533842 0.559082
vt 0.692721 0.593750
vt 0.533842 0.593750
vt 0.421875 0.383301
vt 0.431527 0.390625
vt 0.500752 0.930664
vt 0.492188 0.958208
vt 0.484375 0.918945
vt 0.492188 0.921675
vt 0.600198 0.609375
vt 0.653508 0.601562
vt 0.649802 0.609375
vt 0.445312 0.911333
vt 0.453125 0.872070
vt 0.453125 0.914062
vt 0.561136 0.367188
vt 0.614446 0.375000
vt 0.557429 0.375000
vt 0.453125 0.848054
vt 0.445312 0.841629
vt 0.453125 0.835938
vt 0.338313 0.913288
vt 0.492188 0.906250
vt 0.433340 0.921875
vt 0.414062 0.960938
vt 0.375000 0.835938
vt 0.562500 0.359375
vt 0.394276 0.921875
vt 0.398438 0.960938
vt 0.492188 0.253175
vt 0.476562 0.390625
vt 0.507812 0.376452
vt 0.476562 0.946764
vt 0.437500 0.914062
vt 0.289062 0.531250
vt 0.460938 0.348633
vt 0.595327 0.992188
vt 0.421875 0.348633
vt 0.763033 0.976562
vt 0.382812 0.921875
vt 0.484375 0.960938
vt 0.596492 0.601562
vt 0.445312 0.874800
vt 0.610739 0.367188
vt 0.445312 0.853745
s 1
usemtl m_5d0ffce8-883c-753c-2ce0-25b8eef3ceea.002
f 2/1/1 7/2/1 1/3/1
f 3/4/2 8/5/2 2/6/2
f 3/7/3 10/8/3 9/9/3
f 4/10/4 11/11/4 10/12/4
f 6/13/5 11/14/5 5/15/5
f 1/3/6 12/16/6 6/17/6
f 13/18/7 20/19/7 19/20/7
f 15/21/8 20/22/8 14/23/8
f 16/24/9 21/25/9 15/26/9
f 17/27/10 22/28/10 16/24/10
f 18/29/11 23/30/11 17/31/11
f 18/32/12 19/20/12 24/33/12
f 19/34/13 2/35/13 1/36/13
f 21/37/14 2/38/14 20/39/14
f 22/40/15 3/41/15 21/42/15
f 23/43/16 4/44/16 22/45/16
f 24/46/17 5/47/17 23/48/17
f 19/49/18 6/50/19 24/51/18
f 89/52/20 59/53/20 38/54/20
f 81/55/21 34/56/21 65/57/21
f 76/58/22 57/59/22 55/60/22
f 70/61/23 52/62/23 62/63/23
f 78/64/14 67/65/14 54/66/14
f 59/67/24 25/68/24 38/69/24
f 66/70/25 34/71/25 27/72/25
f 67/73/26 55/74/26 54/75/26
f 61/76/27 37/77/27 29/78/27
f 64/79/28 31/80/28 33/81/28
f 69/82/29 53/83/29 52/84/29
f 87/85/30 42/86/30 40/87/30
f 90/88/31 38/89/31 46/90/31
f 83/91/32 36/92/32 44/93/32
f 80/94/33 48/95/33 34/96/33
f 29/97/34 37/98/34 45/99/34
f 31/100/35 47/101/35 33/102/35
f 30/103/36 41/104/36 39/105/36
f 32/106/37 35/107/37 43/108/37
f 25/109/38 46/110/38 38/111/38
f 27/112/39 34/113/39 48/114/39
f 26/115/40 40/116/40 42/117/40
f 28/118/41 44/119/41 36/120/41
f 72/121/42 51/122/42 50/123/42
f 74/124/43 49/125/43 56/126/43
f 85/127/17 49/128/17 73/129/17
f 84/130/17 44/131/17 49/128/17
f 50/123/42 32/106/42 43/108/42
f 63/132/23 52/62/23 31/133/23
f 52/84/29 47/101/29 31/100/29
f 79/134/14 54/66/14 48/135/14
f 54/75/26 27/112/26 48/114/26
f 57/59/22 27/136/22 55/60/22
f 56/126/43 44/119/43 28/118/43
f 75/137/22 56/138/22 57/59/22
f 58/139/24 40/140/24 26/141/24
f 88/142/20 40/143/20 59/53/20
f 60/144/27 30/145/27 39/146/27
f 71/147/23 62/63/23 51/148/23
f 62/63/23 32/149/23 51/148/23
f 63/150/28 35/151/28 32/152/28
f 82/153/21 65/57/21 36/154/21
f 65/155/25 28/156/25 36/157/25
f 66/158/22 56/138/22 28/159/22
f 107/160/14 90/161/14 46/162/14
f 118/163/29 29/164/29 45/99/29
f 117/165/23 61/166/23 29/167/23
f 116/168/23 30/169/23 61/166/23
f 115/170/42 41/104/42 30/103/42
f 112/171/17 42/172/17 86/173/17
f 111/174/43 26/115/43 42/117/43
f 110/175/22 58/176/22 26/177/22
f 109/178/22 25/179/22 58/176/22
f 108/180/26 46/110/26 25/109/26
f 137/181/14 93/182/14 92/183/14
f 136/184/33 94/185/33 93/186/33
f 135/187/21 95/188/21 94/189/21
f 134/190/21 96/191/21 95/188/21
f 133/192/32 97/193/32 96/194/32
f 132/195/17 98/196/17 97/197/17
f 131/198/17 99/199/17 98/196/17
f 129/200/17 100/201/17 113/202/17
f 128/203/30 101/204/30 100/205/30
f 127/206/20 102/207/20 101/208/20
f 126/209/20 103/210/20 102/207/20
f 125/211/31 104/212/31 103/213/31
f 124/214/14 105/215/14 104/216/14
f 91/217/14 53/218/14 68/219/14
f 92/183/14 47/220/14 53/218/14
f 93/186/33 33/221/33 47/222/33
f 94/189/21 64/223/21 33/224/21
f 95/188/21 35/225/21 64/223/21
f 96/194/32 43/226/32 35/227/32
f 97/197/17 50/228/17 43/229/17
f 98/196/17 72/230/17 50/228/17
f 114/231/17 100/201/17 41/232/17
f 100/205/30 39/233/30 41/234/30
f 101/208/20 60/235/20 39/236/20
f 102/207/20 37/237/20 60/235/20
f 103/213/31 45/238/31 37/239/31
f 105/215/14 45/240/14 104/216/14
f 123/241/14 91/217/14 105/215/14
f 106/242/14 67/65/14 77/243/14
f 107/244/26 76/245/26 67/73/26
f 108/246/22 75/137/22 76/58/22
f 109/178/22 74/247/22 75/137/22
f 110/248/43 73/249/43 74/124/43
f 111/250/17 85/127/17 73/129/17
f 130/251/17 113/202/17 99/199/17
f 113/202/17 72/230/17 99/199/17
f 114/252/42 71/253/42 72/121/42
f 115/254/23 70/61/23 71/147/23
f 116/168/23 69/255/23 70/61/23
f 117/256/29 68/257/29 69/82/29
f 118/258/14 91/217/14 68/219/14
f 139/259/14 121/260/14 120/261/14
f 121/262/44 137/263/44 92/264/44
f 121/265/45 91/266/45 120/267/45
f 140/268/46 120/269/47 91/270/47
f 119/271/48 77/272/48 78/273/48
f 142/274/14 144/275/14 141/276/14
f 124/277/31 89/278/31 90/88/31
f 125/279/20 88/142/20 89/52/20
f 126/209/20 87/280/20 88/142/20
f 127/281/30 86/282/30 87/85/30
f 128/283/17 112/171/17 86/173/17
f 129/200/17 85/127/17 112/171/17
f 130/251/17 84/130/17 85/127/17
f 131/198/17 83/284/17 84/130/17
f 132/285/32 82/286/32 83/91/32
f 133/287/21 81/55/21 82/153/21
f 134/190/21 80/288/21 81/55/21
f 135/289/33 79/290/33 80/94/33
f 136/291/14 78/64/14 79/134/14
f 137/263/44 119/292/44 78/293/44
f 138/294/14 122/295/14 119/296/14
f 122/297/47 140/268/46 77/298/47
f 140/299/14 106/242/14 77/243/14
f 141/300/49 123/301/49 142/302/49
f 142/303/50 124/304/50 143/305/50
f 144/306/51 124/307/51 90/308/51
f 141/309/52 90/310/52 106/311/52
f 78/312/48 146/313/48 119/314/48
f 2/1/1 8/315/1 7/2/1
f 3/4/2 9/316/2 8/5/2
f 3/7/3 4/10/3 10/8/3
f 4/10/4 5/317/4 11/11/4
f 6/13/5 12/318/5 11/14/5
f 1/3/6 7/2/6 12/16/6
f 13/18/7 14/319/7 20/19/7
f 15/21/8 21/320/8 20/22/8
f 16/24/9 22/28/9 21/25/9
f 17/27/10 23/321/10 22/28/10
f 18/29/11 24/322/11 23/30/11
f 18/32/12 13/18/12 19/20/12
f 19/34/13 20/323/13 2/35/13
f 21/37/14 3/324/14 2/38/14
f 22/40/15 4/325/15 3/41/15
f 23/43/16 5/326/16 4/44/16
f 24/46/17 6/327/17 5/47/17
f 19/49/18 1/328/19 6/50/19
f 89/52/20 88/142/20 59/53/20
f 81/55/21 80/288/21 34/56/21
f 76/58/22 75/137/22 57/59/22
f 70/61/23 69/255/23 52/62/23
f 78/64/14 77/243/14 67/65/14
f 59/67/24 58/139/24 25/68/24
f 66/70/25 65/155/25 34/71/25
f 67/73/26 76/245/26 55/74/26
f 61/76/27 60/144/27 37/77/27
f 64/79/28 63/150/28 31/80/28
f 69/82/29 68/257/29 53/83/29
f 87/85/30 86/282/30 42/86/30
f 90/88/31 89/278/31 38/89/31
f 83/91/32 82/286/32 36/92/32
f 80/94/33 79/290/33 48/95/33
f 72/121/42 71/253/42 51/122/42
f 74/124/43 73/249/43 49/125/43
f 85/127/17 84/130/17 49/128/17
f 84/130/17 83/284/17 44/131/17
f 50/123/42 51/122/42 32/106/42
f 63/132/23 62/63/23 52/62/23
f 52/84/29 53/83/29 47/101/29
f 79/134/14 78/64/14 54/66/14
f 54/75/26 55/74/26 27/112/26
f 57/59/22 66/158/22 27/136/22
f 56/126/43 49/125/43 44/119/43
f 75/137/22 74/247/22 56/138/22
f 58/139/24 59/67/24 40/140/24
f 88/142/20 87/280/20 40/143/20
f 60/144/27 61/76/27 30/145/27
f 71/147/23 70/61/23 62/63/23
f 62/63/23 63/132/23 32/149/23
f 63/150/28 64/79/28 35/151/28
f 82/153/21 81/55/21 65/57/21
f 65/155/25 66/70/25 28/156/25
f 66/158/22 57/59/22 56/138/22
f 107/160/14 106/242/14 90/161/14
f 118/163/29 117/256/29 29/164/29
f 117/165/23 116/168/23 61/166/23
f 116/168/23 115/254/23 30/169/23
f 115/170/42 114/252/42 41/104/42
f 112/171/17 111/250/17 42/172/17
f 111/174/43 110/248/43 26/115/43
f 110/175/22 109/178/22 58/176/22
f 109/178/22 108/246/22 25/179/22
f 108/180/26 107/244/26 46/110/26
f 137/181/14 136/291/14 93/182/14
f 136/184/33 135/289/33 94/185/33
f 135/187/21 134/190/21 95/188/21
f 134/190/21 133/287/21 96/191/21
f 133/192/32 132/285/32 97/193/32
f 132/195/17 131/198/17 98/196/17
f 131/198/17 130/251/17 99/199/17
f 129/200/17 128/283/17 100/201/17
f 128/203/30 127/281/30 101/204/30
f 127/206/20 126/209/20 102/207/20
f 126/209/20 125/279/20 103/210/20
f 125/211/31 124/277/31 104/212/31
f 124/214/14 123/241/14 105/215/14
f 91/217/14 92/183/14 53/218/14
f 92/183/14 93/182/14 47/220/14
f 93/186/33 94/185/33 33/221/33
f 94/189/21 95/188/21 64/223/21
f 95/188/21 96/191/21 35/225/21
f 96/194/32 97/193/32 43/226/32
f 97/197/17 98/196/17 50/228/17
f 98/196/17 99/199/17 72/230/17
f 114/231/17 113/202/17 100/201/17
f 100/205/30 101/204/30 39/233/30
f 101/208/20 102/207/20 60/235/20
f 102/207/20 103/210/20 37/237/20
f 103/213/31 104/212/31 45/238/31
f 105/215/14 118/258/14 45/240/14
f 123/241/14 140/299/14 91/217/14
f 106/242/14 107/160/14 67/65/14
f 107/244/26 108/180/26 76/245/26
f 108/246/22 109/178/22 75/137/22
f 109/178/22 110/175/22 74/247/22
f 110/248/43 111/174/43 73/249/43
f 111/250/17 112/171/17 85/127/17
f 130/251/17 129/200/17 113/202/17
f 113/202/17 114/231/17 72/230/17
f 114/252/42 115/170/42 71/253/42
f 115/254/23 116/168/23 70/61/23
f 116/168/23 117/165/23 69/255/23
f 117/256/29 118/163/29 68/257/29
f 118/258/14 105/215/14 91/217/14
f 139/259/14 138/294/14 121/260/14
f 121/262/44 138/329/44 137/263/44
f 121/265/45 92/330/45 91/266/45
f 140/268/46 139/331/46 120/269/47
f 119/271/48 122/332/48 77/272/48
f 142/274/14 143/333/14 144/275/14
f 124/277/31 125/211/31 89/278/31
f 125/279/20 126/209/20 88/142/20
f 126/209/20 127/206/20 87/280/20
f 127/281/30 128/203/30 86/282/30
f 128/283/17 129/200/17 112/171/17
f 129/200/17 130/251/17 85/127/17
f 130/251/17 131/198/17 84/130/17
f 131/198/17 132/195/17 83/284/17
f 132/285/32 133/192/32 82/286/32
f 133/287/21 134/190/21 81/55/21
f 134/190/21 135/187/21 80/288/21
f 135/289/33 136/184/33 79/290/33
f 136/291/14 137/181/14 78/64/14
f 137/263/44 138/329/44 119/292/44
f 138/294/14 139/259/14 122/295/14
f 122/297/47 139/331/46 140/268/46
f 140/299/14 123/241/14 106/242/14
f 141/300/49 106/334/49 123/301/49
f 142/303/50 123/335/50 124/304/50
f 144/306/51 143/336/51 124/307/51
f 141/309/52 144/337/52 90/310/52
f 78/312/48 145/338/48 146/313/48
