# Blender 4.4.1
# www.blender.org
mtllib wvr.mtl
o torus.001
v 0.004016 0.001380 0.103506
v 0.143058 -0.081288 -0.008593
v 0.115250 -0.064754 0.103506
v 0.165764 -0.000692 -0.008593
v 0.133414 -0.000277 0.103506
v 0.145130 0.080460 -0.008593
v 0.116907 0.064644 0.103506
v 0.086684 0.140423 -0.008593
v 0.070150 0.112615 0.103506
v 0.006088 0.163129 -0.008593
v 0.005673 0.130779 0.103506
v -0.075064 0.142495 -0.008593
v -0.059248 0.114272 0.103506
v -0.135027 0.084049 -0.008593
v -0.107219 0.067515 0.103506
v -0.157733 0.003453 -0.008593
v -0.125383 0.003038 0.103506
v -0.137099 -0.077699 -0.008593
v -0.108876 -0.061883 0.103506
v -0.078653 -0.137662 -0.008593
v -0.062119 -0.109854 0.103506
v 0.001944 -0.160368 -0.008593
v 0.002358 -0.128018 0.103506
v 0.083095 -0.139734 -0.008593
v 0.067279 -0.111511 0.103506
vn 0.9272 -0.2612 0.2685
vn -0.0000 -0.0000 1.0000
vn 0.9336 0.2374 0.2685
vn 0.6898 0.6724 0.2685
vn 0.2612 0.9272 0.2685
vn -0.2374 0.9336 0.2685
vn -0.6724 0.6898 0.2685
vn -0.9272 0.2612 0.2685
vn -0.9336 -0.2374 0.2685
vn -0.6898 -0.6724 0.2685
vn -0.2612 -0.9272 0.2685
vn 0.2374 -0.9336 0.2685
vn 0.6724 -0.6898 0.2685
vt 0.624988 0.687291
vt 0.613562 0.702041
vt 0.614609 0.685936
vt 0.355749 0.835938
vt 0.363001 0.840124
vt 0.351562 0.851562
vt 0.604141 0.623436
vt 0.596885 0.640625
vt 0.593762 0.624791
vt 0.367188 0.847376
vt 0.614609 0.623436
vt 0.605188 0.639541
vt 0.367188 0.855749
vt 0.621865 0.640625
vt 0.613562 0.639541
vt 0.363001 0.863001
vt 0.593762 0.656041
vt 0.605188 0.670791
vt 0.596885 0.671875
vt 0.355749 0.867188
vt 0.614609 0.654686
vt 0.604141 0.654686
vt 0.347376 0.867188
vt 0.621865 0.671875
vt 0.613562 0.670791
vt 0.340124 0.863001
vt 0.526016 0.357811
vt 0.518760 0.375000
vt 0.515637 0.359166
vt 0.335938 0.855749
vt 0.536484 0.357811
vt 0.527063 0.373916
vt 0.335938 0.847376
vt 0.546863 0.359166
vt 0.535437 0.373916
vt 0.340124 0.840124
vt 0.593762 0.687291
vt 0.605188 0.702041
vt 0.596885 0.703125
vt 0.347376 0.835938
vt 0.604141 0.685936
vt 0.621865 0.703125
vt 0.624988 0.624791
vt 0.624988 0.656041
vt 0.543740 0.375000
s 1
usemtl m_5d0ffce8-883c-753c-2ce0-25b8eef3ceea.002
f 4/1/1 3/2/1 2/3/1
f 3/4/2 5/5/2 1/6/2
f 6/7/3 5/8/3 4/9/3
f 5/5/2 7/10/2 1/6/2
f 8/11/4 7/12/4 6/7/4
f 7/10/2 9/13/2 1/6/2
f 8/11/5 11/14/5 9/15/5
f 9/13/2 11/16/2 1/6/2
f 10/17/6 13/18/6 11/19/6
f 11/16/2 13/20/2 1/6/2
f 14/21/7 13/18/7 12/22/7
f 13/20/2 15/23/2 1/6/2
f 14/21/8 17/24/8 15/25/8
f 15/23/2 17/26/2 1/6/2
f 18/27/9 17/28/9 16/29/9
f 17/26/2 19/30/2 1/6/2
f 20/31/10 19/32/10 18/27/10
f 19/30/2 21/33/2 1/6/2
f 22/34/11 21/35/11 20/31/11
f 21/33/2 23/36/2 1/6/2
f 22/37/12 25/38/12 23/39/12
f 23/36/2 25/40/2 1/6/2
f 2/3/13 25/38/13 24/41/13
f 25/40/2 3/4/2 1/6/2
f 4/1/1 5/42/1 3/2/1
f 6/7/3 7/12/3 5/8/3
f 8/11/4 9/15/4 7/12/4
f 8/11/5 10/43/5 11/14/5
f 10/17/6 12/22/6 13/18/6
f 14/21/7 15/25/7 13/18/7
f 14/21/8 16/44/8 17/24/8
f 18/27/9 19/32/9 17/28/9
f 20/31/10 21/35/10 19/32/10
f 22/34/11 23/45/11 21/35/11
f 22/37/12 24/41/12 25/38/12
f 2/3/13 3/2/13 25/38/13
