# Blender 4.4.1
# www.blender.org
mtllib dish.mtl
o Cube.001
v -0.072271 0.211015 0.661980
v -0.072271 0.287322 0.871627
v -0.701098 0.211015 0.033152
v -0.910745 0.287322 0.033152
v 0.556557 0.211015 0.033152
v 0.766204 0.287322 0.033152
v -0.072271 0.211015 -0.595675
v -0.072271 0.287322 -0.805322
v -0.072271 0.262518 0.871627
v -0.910745 0.262518 0.033152
v -0.072271 0.262518 -0.805322
v 0.766204 0.262518 0.033152
v -0.516919 0.211015 0.477801
v -0.665162 0.287322 0.626043
v -0.516919 0.211015 -0.411496
v -0.665162 0.287322 -0.559739
v 0.372378 0.211015 0.477801
v 0.520620 0.287322 0.626043
v 0.372378 0.211015 -0.411496
v 0.520620 0.287322 -0.559739
v -0.665162 0.262518 0.626043
v -0.665162 0.262518 -0.559739
v 0.520620 0.262518 -0.559739
v 0.520620 0.262518 0.626043
v -0.312913 0.211015 0.614113
v -0.393141 0.287322 0.807802
v -0.653232 0.211015 -0.207490
v -0.846920 0.287322 -0.287718
v 0.508690 0.211015 0.273794
v 0.702379 0.287322 0.354022
v 0.168371 0.211015 -0.547809
v 0.248600 0.287322 -0.741497
v -0.393141 0.262518 0.807802
v -0.846920 0.262518 -0.287718
v 0.248600 0.262518 -0.741497
v 0.702379 0.262518 0.354022
v -0.653232 0.211015 0.273794
v -0.846920 0.287322 0.354023
v -0.312913 0.211015 -0.547809
v -0.393141 0.287322 -0.741497
v 0.168371 0.211015 0.614113
v 0.248600 0.287322 0.807802
v 0.508690 0.211015 -0.207490
v 0.702379 0.287322 -0.287718
v -0.846920 0.262518 0.354023
v -0.393141 0.262518 -0.741497
v 0.702379 0.262518 -0.287718
v 0.248600 0.262518 0.807802
vn -0.7071 -0.0000 0.7071
vn -0.7071 -0.0000 -0.7071
vn 0.7071 -0.0000 -0.7071
vn 0.7071 -0.0000 0.7071
vn -0.0000 -1.0000 -0.0000
vn -0.0000 1.0000 -0.0000
vn 0.2321 -0.9446 0.2321
vn 0.2321 -0.9446 -0.2321
vn -0.2321 -0.9446 -0.2321
vn -0.2321 -0.9446 0.2321
vn -1.0000 -0.0000 -0.0000
vn -0.0000 -0.0000 -1.0000
vn 1.0000 -0.0000 -0.0000
vn -0.0000 -0.0000 1.0000
vn -0.0000 -0.9446 0.3282
vn 0.3282 -0.9446 -0.0000
vn -0.0000 -0.9446 -0.3282
vn -0.3282 -0.9446 -0.0000
vn -0.9239 -0.0000 0.3827
vn -0.3827 -0.0000 -0.9239
vn 0.9239 -0.0000 -0.3827
vn 0.3827 -0.0000 0.9239
vn 0.1256 -0.9446 0.3032
vn 0.3032 -0.9446 -0.1256
vn -0.1256 -0.9446 -0.3032
vn -0.3032 -0.9446 0.1256
vn -0.9239 -0.0000 -0.3827
vn 0.3827 -0.0000 -0.9239
vn 0.9239 -0.0000 0.3827
vn -0.3827 -0.0000 0.9239
vn -0.1256 -0.9446 0.3032
vn 0.3032 -0.9446 0.1256
vn 0.1256 -0.9446 -0.3032
vn -0.3032 -0.9446 -0.1256
vn 0.5556 -0.0000 -0.8315
vn 0.1951 -0.0000 -0.9808
vn -0.1951 -0.0000 -0.9808
vn -0.5556 -0.0000 -0.8315
vn -0.8315 -0.0000 -0.5556
vn -0.9808 -0.0000 -0.1951
vn -0.9808 -0.0000 0.1951
vn -0.8315 -0.0000 0.5556
vn -0.5556 -0.0000 0.8315
vn -0.1951 -0.0000 0.9808
vn 0.8315 -0.0000 -0.5556
vn 0.9808 -0.0000 -0.1951
vn 0.9808 -0.0000 0.1951
vn 0.8315 -0.0000 0.5556
vn 0.5556 -0.0000 0.8315
vn 0.1951 -0.0000 0.9808
vn -0.0474 0.9700 0.2383
vn -0.0474 -0.9700 -0.2383
vn -0.1350 -0.9700 -0.2020
vn -0.2020 -0.9700 -0.1350
vn -0.2383 -0.9700 -0.0474
vn -0.2383 -0.9700 0.0474
vn -0.2020 -0.9700 0.1350
vn 0.1350 0.9700 -0.2020
vn 0.0474 0.9700 -0.2383
vn -0.0474 0.9700 -0.2383
vn -0.1350 0.9700 -0.2020
vn 0.2020 -0.9700 0.1350
vn 0.2383 -0.9700 0.0474
vn 0.2383 -0.9700 -0.0474
vn 0.2020 -0.9700 -0.1350
vn 0.1350 -0.9700 -0.2020
vt 0.625000 0.000000
vt 0.543738 0.250000
vt 0.543738 0.000000
vt 0.625000 0.250000
vt 0.543738 0.500000
vt 0.625000 0.500000
vt 0.543738 0.750000
vt 0.625000 0.750000
vt 0.543738 1.000000
vt 0.375000 0.500000
vt 0.125000 0.750000
vt 0.125000 0.500000
vt 0.875000 0.500000
vt 0.375000 1.000000
vt 0.375000 0.750000
vt 0.375000 0.250000
vt 0.375000 0.000000
vt 0.000000 0.000000
vt 0.625000 1.000000
vt 0.875000 0.750000
s 0
usemtl Material.001
f 2/1/1 10/2/1 9/3/1
f 4/4/2 11/5/2 10/2/2
f 8/6/3 12/7/3 11/5/3
f 6/8/4 9/9/4 12/7/4
f 7/10/5 1/11/5 3/12/5
f 4/13/6 6/8/6 8/6/6
f 12/7/7 1/14/7 5/15/7
f 11/5/8 5/15/8 7/10/8
f 10/2/9 7/10/9 3/16/9
f 9/3/10 3/16/10 1/17/10
f 14/1/11 22/2/11 21/3/11
f 16/4/12 23/5/12 22/2/12
f 20/6/13 24/7/13 23/5/13
f 18/8/14 21/9/14 24/7/14
f 19/10/5 13/11/5 15/12/5
f 16/13/6 18/8/6 20/6/6
f 24/7/15 13/14/15 17/15/15
f 19/10/16 24/7/16 17/15/16
f 22/2/17 19/10/17 15/16/17
f 21/3/18 15/16/18 13/17/18
f 26/1/19 34/2/19 33/3/19
f 28/4/20 35/5/20 34/2/20
f 32/6/21 36/7/21 35/5/21
f 30/8/22 33/9/22 36/7/22
f 31/10/5 25/11/5 27/12/5
f 28/13/6 30/8/6 32/6/6
f 36/7/23 25/14/23 29/15/23
f 35/5/24 29/15/24 31/10/24
f 34/2/25 31/10/25 27/16/25
f 33/3/26 27/16/26 25/17/26
f 38/1/27 46/2/27 45/3/27
f 40/4/28 47/5/28 46/2/28
f 44/6/29 48/7/29 47/5/29
f 42/8/30 45/9/30 48/7/30
f 43/10/5 37/11/5 39/12/5
f 40/13/6 42/8/6 44/6/6
f 48/7/31 37/14/31 41/15/31
f 47/5/32 41/15/32 43/10/32
f 39/16/33 47/5/33 43/10/33
f 37/17/34 46/2/34 39/16/34
f 32/18/5 30/18/5 26/18/5
f 21/18/35 26/18/35 33/18/35
f 33/18/36 2/18/36 9/18/36
f 9/18/37 42/18/37 48/18/37
f 18/18/38 48/18/38 42/18/38
f 30/18/39 24/18/39 18/18/39
f 6/18/40 36/18/40 30/18/40
f 44/18/41 12/18/41 6/18/41
f 20/18/42 47/18/42 44/18/42
f 32/18/43 23/18/43 20/18/43
f 8/18/44 35/18/44 32/18/44
f 45/18/45 14/18/45 21/18/45
f 38/18/46 10/18/46 4/18/46
f 4/18/47 34/18/47 28/18/47
f 28/18/48 22/18/48 16/18/48
f 16/18/49 46/18/49 40/18/49
f 40/18/50 11/18/50 8/18/50
f 11/18/51 31/18/51 35/18/51
f 11/18/52 39/18/52 46/18/52
f 22/18/53 39/18/53 15/18/53
f 22/18/54 27/18/54 34/18/54
f 34/18/55 3/18/55 10/18/55
f 10/18/56 37/18/56 45/18/56
f 37/18/57 21/18/57 45/18/57
f 13/18/58 33/18/58 25/18/58
f 1/18/59 33/18/59 9/18/59
f 41/18/60 9/18/60 48/18/60
f 24/18/61 41/18/61 48/18/61
f 36/18/62 17/18/62 29/18/62
f 36/18/63 5/18/63 12/18/63
f 12/18/64 43/18/64 47/18/64
f 47/18/65 19/18/65 23/18/65
f 23/18/66 31/18/66 35/18/66
f 2/1/1 4/4/1 10/2/1
f 4/4/2 8/6/2 11/5/2
f 8/6/3 6/8/3 12/7/3
f 6/8/4 2/19/4 9/9/4
f 7/10/5 5/15/5 1/11/5
f 4/13/6 2/20/6 6/8/6
f 12/7/7 9/9/7 1/14/7
f 11/5/8 12/7/8 5/15/8
f 10/2/9 11/5/9 7/10/9
f 9/3/10 10/2/10 3/16/10
f 14/1/11 16/4/11 22/2/11
f 16/4/12 20/6/12 23/5/12
f 20/6/13 18/8/13 24/7/13
f 18/8/14 14/19/14 21/9/14
f 19/10/5 17/15/5 13/11/5
f 16/13/6 14/20/6 18/8/6
f 24/7/15 21/9/15 13/14/15
f 19/10/16 23/5/16 24/7/16
f 22/2/17 23/5/17 19/10/17
f 21/3/18 22/2/18 15/16/18
f 26/1/19 28/4/19 34/2/19
f 28/4/20 32/6/20 35/5/20
f 32/6/21 30/8/21 36/7/21
f 30/8/22 26/19/22 33/9/22
f 31/10/5 29/15/5 25/11/5
f 28/13/6 26/20/6 30/8/6
f 36/7/23 33/9/23 25/14/23
f 35/5/24 36/7/24 29/15/24
f 34/2/25 35/5/25 31/10/25
f 33/3/26 34/2/26 27/16/26
f 38/1/27 40/4/27 46/2/27
f 40/4/28 44/6/28 47/5/28
f 44/6/29 42/8/29 48/7/29
f 42/8/30 38/19/30 45/9/30
f 43/10/5 41/15/5 37/11/5
f 40/13/6 38/20/6 42/8/6
f 48/7/31 45/9/31 37/14/31
f 47/5/32 48/7/32 41/15/32
f 39/16/33 46/2/33 47/5/33
f 37/17/34 45/3/34 46/2/34
f 26/18/5 14/18/5 38/18/5
f 38/18/5 4/18/5 28/18/5
f 28/18/5 16/18/5 40/18/5
f 40/18/5 8/18/5 32/18/5
f 32/18/5 20/18/5 44/18/5
f 44/18/5 6/18/5 30/18/5
f 30/18/5 18/18/5 42/18/5
f 42/18/5 2/18/5 26/18/5
f 26/18/5 38/18/5 28/18/5
f 28/18/5 40/18/5 32/18/5
f 32/18/5 44/18/5 30/18/5
f 30/18/5 42/18/5 26/18/5
f 26/18/5 28/18/5 32/18/5
f 21/18/35 14/18/35 26/18/35
f 33/18/36 26/18/36 2/18/36
f 9/18/37 2/18/37 42/18/37
f 18/18/38 24/18/38 48/18/38
f 30/18/39 36/18/39 24/18/39
f 6/18/40 12/18/40 36/18/40
f 44/18/41 47/18/41 12/18/41
f 20/18/42 23/18/42 47/18/42
f 32/18/43 35/18/43 23/18/43
f 8/18/44 11/18/44 35/18/44
f 45/18/45 38/18/45 14/18/45
f 38/18/46 45/18/46 10/18/46
f 4/18/47 10/18/47 34/18/47
f 28/18/48 34/18/48 22/18/48
f 16/18/49 22/18/49 46/18/49
f 40/18/50 46/18/50 11/18/50
f 7/18/5 31/18/5 19/18/5
f 19/18/5 43/18/5 5/18/5
f 5/18/5 29/18/5 17/18/5
f 17/18/5 41/18/5 1/18/5
f 1/18/5 25/18/5 13/18/5
f 13/18/5 37/18/5 3/18/5
f 3/18/5 27/18/5 15/18/5
f 15/18/5 39/18/5 7/18/5
f 7/18/5 19/18/5 5/18/5
f 5/18/5 17/18/5 1/18/5
f 1/18/5 13/18/5 3/18/5
f 3/18/5 15/18/5 7/18/5
f 11/18/51 7/18/51 31/18/51
f 11/18/52 7/18/52 39/18/52
f 22/18/53 46/18/53 39/18/53
f 22/18/54 15/18/54 27/18/54
f 34/18/55 27/18/55 3/18/55
f 10/18/56 3/18/56 37/18/56
f 37/18/57 13/18/57 21/18/57
f 13/18/58 21/18/58 33/18/58
f 1/18/59 25/18/59 33/18/59
f 41/18/60 1/18/60 9/18/60
f 24/18/61 17/18/61 41/18/61
f 36/18/62 24/18/62 17/18/62
f 36/18/63 29/18/63 5/18/63
f 12/18/64 5/18/64 43/18/64
f 47/18/65 43/18/65 19/18/65
f 23/18/66 19/18/66 31/18/66
