# Blender 4.4.1
# www.blender.org
mtllib MWdoor.mtl
o beveled_cuboid.010
v 0.216794 1.014772 0.011220
v 0.216794 -0.860228 0.011221
v 0.010063 -0.703978 0.011221
v 0.010063 0.858522 0.011220
v 0.216794 -0.703978 0.174682
v 0.216794 0.858522 0.174681
v 0.416313 -0.860228 0.011221
v 0.416313 -0.703978 0.174682
v 0.416313 0.858522 0.174681
v 0.416313 1.014772 0.011220
v 1.828572 0.858522 0.174681
v 1.828572 -0.703978 0.174682
v 1.828572 -0.860228 0.011221
v 1.828572 1.014772 0.011220
v 1.828572 0.639772 0.174681
v 0.416313 0.639772 0.174681
v 0.216794 0.639772 0.174681
v 0.010063 0.639772 0.011220
v 1.828572 -0.532103 0.174682
v 0.416313 -0.532103 0.174682
v 0.216794 -0.532103 0.174682
v 0.010063 -0.532103 0.011221
v 2.034702 -0.532103 0.174682
v 2.034702 0.639772 0.174681
v 2.034702 0.858522 0.174681
v 2.034702 1.014772 0.011220
v 2.034702 -0.860228 0.011221
v 2.034702 -0.703978 0.174682
v 0.486926 0.581179 0.143431
v 1.757960 -0.473509 0.143432
v 0.486926 -0.473509 0.143432
v 1.757960 0.581179 0.143431
v 2.034702 0.303835 0.174681
v 0.010063 0.303835 0.011220
v 0.216794 0.303835 0.174681
v 0.416313 0.303835 0.174681
v 0.486926 0.303835 0.143431
v 1.757960 0.303835 0.143431
v 1.828572 0.303835 0.174681
v 0.353813 0.639772 0.174681
v 1.831682 0.479314 0.368238
v 1.864622 0.592699 0.412122
v 1.930503 0.592699 0.412122
v 1.963444 0.479314 0.368238
v 1.930503 0.365930 0.324356
v 1.864622 0.365930 0.324356
v 1.831682 0.534290 0.134817
v 1.864622 0.661957 0.118055
v 1.930503 0.661957 0.118055
v 1.963444 0.534290 0.134817
v 1.930503 0.406622 0.151579
v 1.864622 0.406622 0.151579
v 1.831682 -0.448495 0.134818
v 1.864622 -0.576163 0.118056
v 1.930503 -0.576163 0.118056
v 1.963444 -0.448495 0.134818
v 1.930503 -0.320828 0.151580
v 1.864622 -0.320828 0.151580
v 1.831682 -0.393519 0.368239
v 1.864622 -0.506904 0.412123
v 1.930503 -0.506904 0.412123
v 1.963444 -0.393519 0.368239
v 1.930503 -0.280135 0.324357
v 1.864622 -0.280135 0.324357
v 2.034702 0.639161 0.011220
v 1.828572 0.639161 0.011220
v 2.034702 0.459771 0.138828
v 2.034702 -0.531353 0.011221
v 1.828572 -0.531353 0.011221
v 1.122443 -0.618041 0.174682
v 2.034702 0.471512 0.174681
v 1.828572 0.052891 0.011220
v 2.034702 0.736791 0.075135
v 2.034702 0.052891 0.011220
vn -0.0000 -0.0000 1.0000
vn -0.0000 0.7229 0.6910
vn -0.0000 -0.7229 0.6910
vn -0.6202 -0.0000 0.7844
vn -0.4795 -0.6344 0.6064
vn -0.4795 0.6344 0.6064
vn 0.4047 -0.0000 0.9145
vn -0.0000 -0.4706 -0.8824
vn -0.4047 -0.0000 0.9145
vn -0.0000 -0.4706 0.8824
vn -1.0000 -0.0000 -0.0000
vn -0.0000 -1.0000 0.0001
vn -0.0000 -1.0000 -0.0000
vn -0.0000 1.0000 -0.0001
vn -0.9646 0.2568 0.0605
vn -0.0000 0.9734 0.2292
vn 0.9646 0.2568 0.0605
vn 0.9646 -0.2568 -0.0605
vn -0.0000 -0.9734 -0.2292
vn -0.9646 -0.2568 -0.0605
vn -0.9646 -0.2568 0.0605
vn -0.0000 -0.9734 0.2292
vn 0.9646 -0.2568 0.0605
vn 0.9646 0.2568 -0.0605
vn -0.0000 0.9734 -0.2293
vn -0.9646 0.2568 -0.0605
vn -0.7998 -0.0000 0.6003
vn 0.7998 -0.0000 0.6003
vn 0.7997 -0.0000 -0.6003
vn -0.0000 -0.0000 -1.0000
vn -0.7998 -0.0000 -0.6003
vn -0.8821 -0.0000 -0.4711
vn -0.5142 -0.0000 -0.8576
vn -0.0000 0.4706 -0.8823
vn -0.0000 0.4706 -0.8824
vn -0.2749 -0.0000 -0.9615
vn -0.2750 -0.0000 -0.9614
vn 0.8821 -0.0000 -0.4711
vn -0.0000 0.4706 0.8824
vn 0.0004 -0.9148 0.4039
vn 0.0004 -0.9147 0.4040
vn -0.0000 -0.9160 0.4011
vn -0.0000 -0.9162 0.4008
vn 0.0003 0.9157 0.4019
vn 0.0003 0.9157 0.4018
vn 0.0001 0.9147 0.4042
vn -0.0000 0.9142 0.4052
vn 1.0000 -0.0000 -0.0000
vn -0.0685 0.0945 -0.9932
vn 0.9363 -0.2539 0.2427
vt 0.324219 0.972656
vt 0.500752 1.000000
vt 0.324219 1.000000
vt 0.762470 0.424859
vt 0.585938 0.453125
vt 0.585938 0.424859
vt 0.762470 0.382812
vt 0.585938 0.411079
vt 0.585938 0.382812
vt 0.234375 0.503906
vt 0.267319 0.531250
vt 0.234375 0.531250
vt 0.560998 0.382812
vt 0.560998 0.411079
vt 0.531551 0.396308
vt 0.560998 0.453125
vt 0.531551 0.439629
vt 0.560998 0.424859
vt 0.299279 0.972656
vt 0.299279 1.000000
vt 0.324219 0.930664
vt 0.299279 0.826172
vt 0.324219 0.826172
vt 0.267319 0.461914
vt 0.234375 0.357422
vt 0.267319 0.357422
vt 0.412485 0.815430
vt 0.500752 0.804688
vt 0.500752 0.826172
vt 0.299279 0.804688
vt 0.324219 0.804688
vt 0.234375 0.335938
vt 0.267319 0.335938
vt 0.526517 0.930664
vt 0.526517 0.826172
vt 0.526517 0.972656
vt 0.500752 0.972656
vt 0.788236 0.424859
vt 0.762470 0.453125
vt 0.788236 0.382812
vt 0.762470 0.411079
vt 0.526517 0.804688
vt 0.460938 0.251465
vt 0.451285 0.348633
vt 0.451285 0.244141
vt 0.421875 0.251465
vt 0.000000 0.000000
vt 0.431527 0.348633
vt 0.431527 0.244141
vt 0.604154 0.976562
vt 0.771860 0.984375
vt 0.595327 0.984375
vt 0.234375 0.461914
vt 0.267319 0.503906
vt 0.299279 0.930664
vt 0.460938 0.383301
vt 0.451285 0.390625
vt 0.421875 0.383301
vt 0.431527 0.390625
vt 0.500752 0.930664
vt 0.000000 1.000000
vt 0.000000 1.000000
vt 0.375000 0.904330
vt 0.340147 0.896775
vt 0.369267 0.889665
vt 0.492188 0.867188
vt 0.484375 0.906250
vt 0.484375 0.867188
vt 0.421875 0.951205
vt 0.456727 0.943651
vt 0.458561 0.960162
vt 0.427607 0.936540
vt 0.454894 0.927138
vt 0.456728 0.943651
vt 0.414062 0.937500
vt 0.406250 0.960938
vt 0.406250 0.937500
vt 0.341980 0.880263
vt 0.363535 0.875000
vt 0.376834 0.852450
vt 0.411687 0.844895
vt 0.405954 0.859560
vt 0.562500 0.320312
vt 0.554688 0.359375
vt 0.554688 0.320312
vt 0.417665 0.900099
vt 0.382812 0.892545
vt 0.419499 0.883587
vt 0.415831 0.916612
vt 0.388544 0.907210
vt 0.398438 0.937500
vt 0.390625 0.960938
vt 0.390625 0.937500
vt 0.378667 0.868963
vt 0.400222 0.874225
vt 0.492188 0.253175
vt 0.484375 0.376452
vt 0.484375 0.267348
vt 0.476562 0.250000
vt 0.468750 0.390625
vt 0.468750 0.250000
vt 0.507812 0.267348
vt 0.500000 0.390625
vt 0.500000 0.253175
vt 0.476562 0.866006
vt 0.468750 0.960938
vt 0.468750 0.851833
vt 0.437500 0.835938
vt 0.429688 0.914062
vt 0.429688 0.835938
vt 0.281250 0.436319
vt 0.289062 0.531250
vt 0.281250 0.517077
vt 0.526517 1.000000
vt 0.788236 0.453125
vt 0.788236 0.411079
vt 0.460938 0.348633
vt 0.421875 0.348633
vt 0.762470 0.417054
vt 0.763033 0.976562
vt 0.526517 0.951624
vt 0.338313 0.913288
vt 0.492188 0.906250
vt 0.433340 0.921875
vt 0.414062 0.960938
vt 0.375000 0.835938
vt 0.562500 0.359375
vt 0.394276 0.921875
vt 0.398438 0.960938
vt 0.492188 0.390625
vt 0.476562 0.390625
vt 0.507812 0.376452
vt 0.476562 0.946764
vt 0.437500 0.914062
vt 0.289062 0.422145
vt 0.762470 0.439039
vt 0.000000 1.000000
vt 0.762470 0.395145
vt 0.771860 0.992188
vt 0.604154 1.000000
vt 0.595327 0.992188
vt 0.763033 1.000000
s 1
usemtl m_5d0ffce8-883c-753c-2ce0-25b8eef3ceea.002
f 16/1/1 11/2/1 9/3/1
f 11/4/2 10/5/2 9/6/2
f 13/7/3 8/8/3 7/9/3
f 18/10/4 6/11/4 4/12/4
f 2/13/5 5/14/5 3/15/5
f 1/16/6 4/17/6 6/18/6
f 7/9/3 5/14/3 2/13/3
f 17/19/1 9/3/1 6/20/1
f 9/6/2 1/16/2 6/18/2
f 36/21/1 21/22/1 20/23/1
f 35/24/4 22/25/4 21/26/4
f 70/27/1 12/28/1 19/29/1
f 20/23/1 5/30/1 8/31/1
f 21/26/4 3/32/4 5/33/4
f 33/34/1 19/29/1 23/35/1
f 24/36/1 11/2/1 15/37/1
f 25/38/2 14/39/2 11/4/2
f 27/40/3 12/41/3 13/7/3
f 28/42/1 19/29/1 12/28/1
f 31/43/7 36/44/7 20/45/7
f 30/46/8 20/23/8 31/47/8
f 39/48/9 30/46/9 19/49/9
f 29/50/10 15/51/10 16/52/10
f 34/53/4 17/54/4 18/10/4
f 35/55/1 16/1/1 17/19/1
f 36/44/7 29/56/7 16/57/7
f 32/58/9 39/48/9 15/59/9
f 39/60/1 24/36/1 15/37/1
f 27/61/11 23/61/11 33/61/11
f 71/62/11 67/61/11 33/61/11
s 0
f 22/61/12 18/61/13 4/61/14
s 1
f 42/63/15 47/64/15 41/65/15
f 43/66/16 48/67/16 42/68/16
f 43/69/17 50/70/17 49/71/17
f 44/72/18 51/73/18 50/74/18
f 46/75/19 51/76/19 45/77/19
f 41/65/20 52/78/20 46/79/20
f 53/80/21 60/81/21 59/82/21
f 55/83/22 60/84/22 54/85/22
f 56/86/23 61/87/23 55/88/23
f 57/89/24 62/90/24 56/86/24
f 58/91/25 63/92/25 57/93/25
f 58/94/26 59/82/26 64/95/26
f 60/96/27 41/97/27 59/98/27
f 61/99/1 42/100/1 60/101/1
f 62/102/28 43/103/28 61/104/28
f 63/105/29 44/106/29 62/107/29
f 64/108/30 45/109/30 63/110/30
f 64/111/31 41/112/31 46/113/31
f 16/1/1 15/37/1 11/2/1
f 11/4/2 14/39/2 10/5/2
f 13/7/3 12/41/3 8/8/3
f 18/10/4 17/54/4 6/11/4
f 7/9/3 8/8/3 5/14/3
f 17/19/1 16/1/1 9/3/1
f 9/6/2 10/5/2 1/16/2
f 36/21/1 35/55/1 21/22/1
f 35/24/4 34/53/4 22/25/4
f 20/23/1 70/27/1 19/29/1
f 20/23/1 21/22/1 5/30/1
f 21/26/4 22/25/4 3/32/4
f 33/34/1 39/60/1 19/29/1
f 24/36/1 25/114/1 11/2/1
f 25/38/2 26/115/2 14/39/2
f 27/40/3 28/116/3 12/41/3
f 28/42/1 23/35/1 19/29/1
f 31/43/7 37/117/7 36/44/7
f 38/118/32 72/119/33 30/46/32
f 39/48/9 38/118/9 30/46/9
f 29/50/10 32/120/10 15/51/10
f 34/53/4 35/24/4 17/54/4
f 35/55/1 36/21/1 16/1/1
f 36/44/7 37/117/7 29/56/7
f 32/58/9 38/118/9 39/48/9
f 39/60/1 71/121/1 24/36/1
f 29/47/34 16/1/34 32/58/35
f 27/61/11 28/61/11 23/61/11
f 24/61/11 25/61/11 26/61/11
s 0
f 22/61/12 34/61/13 18/61/14
s 1
f 42/63/15 48/122/15 47/64/15
f 43/66/16 49/123/16 48/67/16
f 43/69/17 44/72/17 50/70/17
f 44/72/18 45/124/18 51/73/18
f 46/75/19 52/125/19 51/76/19
f 41/65/20 47/64/20 52/78/20
f 53/80/21 54/126/21 60/81/21
f 55/83/22 61/127/22 60/84/22
f 56/86/23 62/90/23 61/87/23
f 57/89/24 63/128/24 62/90/24
f 58/91/25 64/129/25 63/92/25
f 58/94/26 53/80/26 59/82/26
f 60/96/27 42/130/27 41/97/27
f 61/99/1 43/131/1 42/100/1
f 62/102/28 44/132/28 43/103/28
f 63/105/29 45/133/29 44/106/29
f 64/108/30 46/134/30 45/109/30
f 64/111/31 59/135/31 41/112/31
f 68/61/11 33/61/11 67/61/11
f 66/136/36 26/61/30 65/61/30
f 72/119/33 65/61/30 74/137/30
s 0
f 1/47/30 7/47/30 22/47/30
s 1
f 13/7/30 68/61/30 27/61/30
f 74/137/11 67/61/11 73/61/11
f 65/61/11 73/61/11 26/61/11
f 69/138/37 74/137/30 68/61/30
f 24/61/11 73/61/11 71/62/11
s 0
f 13/47/1 68/47/1 3/47/1
f 29/47/38 31/47/38 7/47/38
s 1
f 19/139/39 31/140/39 20/141/39
f 70/27/1 8/31/1 12/28/1
f 31/47/40 22/47/41 69/47/42
f 30/46/8 19/49/8 20/23/8
f 31/47/40 69/47/42 30/46/43
f 20/23/8 21/22/8 31/47/8
f 71/62/11 73/61/11 67/61/11
f 20/23/1 8/31/1 70/27/1
f 38/118/32 32/58/32 66/47/36
f 72/119/33 69/138/37 30/46/32
f 38/118/32 66/47/36 72/119/33
f 39/60/1 33/34/1 71/121/1
f 32/58/44 66/47/45 18/47/46
f 29/47/35 17/47/35 40/47/35
f 32/58/44 18/47/46 29/47/47
f 16/1/34 15/37/35 32/58/35
f 29/47/35 40/47/35 16/1/35
f 68/61/11 27/61/11 33/61/11
f 66/136/36 14/39/30 26/61/30
f 72/119/33 66/136/36 65/61/30
s 0
f 4/47/30 1/47/30 10/47/30
f 10/47/30 14/47/30 66/47/30
f 10/47/30 66/47/30 18/47/30
f 4/47/30 10/47/30 18/47/30
f 18/47/30 4/47/30 1/47/30
f 1/47/30 10/47/30 7/47/30
f 7/47/30 2/47/30 3/47/30
f 22/47/30 18/47/30 1/47/30
f 7/47/30 3/47/30 22/47/30
s 1
f 13/7/30 69/138/37 68/61/30
f 74/137/11 68/61/11 67/61/11
f 65/61/11 74/137/11 73/61/11
f 69/138/37 72/119/33 74/137/30
f 24/61/11 26/61/11 73/61/11
s 0
f 3/47/1 7/47/1 13/47/1
f 68/47/1 22/47/1 3/47/1
f 7/47/48 10/47/48 9/47/48
f 9/47/7 16/47/7 29/47/7
f 31/47/7 20/47/7 8/47/7
f 7/47/49 9/47/49 29/47/49
f 31/47/50 8/47/50 7/47/50
s 1
f 19/139/39 30/142/39 31/140/39
l 15 66
l 19 69
