# Blender 4.4.1
# www.blender.org
mtllib Tin.mtl
o Text
v 1.445000 -0.000000 0.070000
v 0.989000 0.525000 0.070000
v 0.989000 -0.000000 0.070000
v 0.897000 -0.000000 0.070000
v 0.897000 0.682000 0.070000
v 0.975000 0.682000 0.070000
v 1.437000 0.154000 0.070000
v 1.437000 0.682000 0.070000
v 1.529000 0.682000 0.070000
v 1.529000 -0.000000 0.070000
v 0.706865 0.532489 0.070000
v 0.700005 0.533912 0.070000
v 0.693484 0.536203 0.070000
v 0.687370 0.539296 0.070000
v 0.681729 0.543126 0.070000
v 0.676625 0.547625 0.070000
v 0.672126 0.552729 0.070000
v 0.668296 0.558370 0.070000
v 0.665203 0.564484 0.070000
v 0.662912 0.571005 0.070000
v 0.661489 0.577865 0.070000
v 0.661000 0.585000 0.070000
v 0.661489 0.592135 0.070000
v 0.662912 0.598995 0.070000
v 0.665203 0.605516 0.070000
v 0.668296 0.611630 0.070000
v 0.672126 0.617271 0.070000
v 0.676625 0.622375 0.070000
v 0.681729 0.626874 0.070000
v 0.687370 0.630704 0.070000
v 0.693484 0.633797 0.070000
v 0.700005 0.636088 0.070000
v 0.706865 0.637511 0.070000
v 0.714000 0.638000 0.070000
v 0.721135 0.637511 0.070000
v 0.727995 0.636088 0.070000
v 0.734516 0.633797 0.070000
v 0.740630 0.630704 0.070000
v 0.746271 0.626875 0.070000
v 0.751375 0.622375 0.070000
v 0.755874 0.617271 0.070000
v 0.759704 0.611630 0.070000
v 0.762797 0.605516 0.070000
v 0.765088 0.598995 0.070000
v 0.766511 0.592135 0.070000
v 0.767000 0.585000 0.070000
v 0.766511 0.577865 0.070000
v 0.765088 0.571005 0.070000
v 0.762797 0.564484 0.070000
v 0.759704 0.558370 0.070000
v 0.755875 0.552729 0.070000
v 0.751375 0.547625 0.070000
v 0.746271 0.543126 0.070000
v 0.740630 0.539296 0.070000
v 0.734516 0.536203 0.070000
v 0.727995 0.533912 0.070000
v 0.721135 0.532489 0.070000
v 0.714000 0.532000 0.070000
v 0.669000 -0.000000 0.070000
v 0.669000 0.449000 0.070000
v 0.758000 0.449000 0.070000
v 0.758000 -0.000000 0.070000
v 0.351000 0.594000 0.070000
v 0.351000 -0.000000 0.070000
v 0.253000 -0.000000 0.070000
v 0.253000 0.594000 0.070000
v 0.017000 0.594000 0.070000
v 0.017000 0.682000 0.070000
v 0.587000 0.682000 0.070000
v 0.587000 0.594000 0.070000
v 1.445000 0.000000 -0.070000
v 0.989000 0.525000 -0.070000
v 0.989000 0.000000 -0.070000
v 0.897000 0.000000 -0.070000
v 0.897000 0.682000 -0.070000
v 0.975000 0.682000 -0.070000
v 1.437000 0.154000 -0.070000
v 1.437000 0.682000 -0.070000
v 1.529000 0.682000 -0.070000
v 1.529000 0.000000 -0.070000
v 0.706865 0.532489 -0.070000
v 0.700005 0.533912 -0.070000
v 0.693484 0.536203 -0.070000
v 0.687370 0.539296 -0.070000
v 0.681729 0.543126 -0.070000
v 0.676625 0.547625 -0.070000
v 0.672126 0.552729 -0.070000
v 0.668296 0.558370 -0.070000
v 0.665203 0.564484 -0.070000
v 0.662912 0.571005 -0.070000
v 0.661489 0.577865 -0.070000
v 0.661000 0.585000 -0.070000
v 0.661489 0.592135 -0.070000
v 0.662912 0.598995 -0.070000
v 0.665203 0.605516 -0.070000
v 0.668296 0.611630 -0.070000
v 0.672126 0.617271 -0.070000
v 0.676625 0.622375 -0.070000
v 0.681729 0.626874 -0.070000
v 0.687370 0.630704 -0.070000
v 0.693484 0.633797 -0.070000
v 0.700005 0.636088 -0.070000
v 0.706865 0.637511 -0.070000
v 0.714000 0.638000 -0.070000
v 0.721135 0.637511 -0.070000
v 0.727995 0.636088 -0.070000
v 0.734516 0.633797 -0.070000
v 0.740630 0.630704 -0.070000
v 0.746271 0.626875 -0.070000
v 0.751375 0.622375 -0.070000
v 0.755874 0.617271 -0.070000
v 0.759704 0.611630 -0.070000
v 0.762797 0.605516 -0.070000
v 0.765088 0.598995 -0.070000
v 0.766511 0.592135 -0.070000
v 0.767000 0.585000 -0.070000
v 0.766511 0.577865 -0.070000
v 0.765088 0.571005 -0.070000
v 0.762797 0.564484 -0.070000
v 0.759704 0.558370 -0.070000
v 0.755875 0.552729 -0.070000
v 0.751375 0.547625 -0.070000
v 0.746271 0.543126 -0.070000
v 0.740630 0.539296 -0.070000
v 0.734516 0.536203 -0.070000
v 0.727995 0.533912 -0.070000
v 0.721135 0.532489 -0.070000
v 0.714000 0.532000 -0.070000
v 0.669000 0.000000 -0.070000
v 0.669000 0.449000 -0.070000
v 0.758000 0.449000 -0.070000
v 0.758000 0.000000 -0.070000
v 0.351000 0.594000 -0.070000
v 0.351000 0.000000 -0.070000
v 0.253000 0.000000 -0.070000
v 0.253000 0.594000 -0.070000
v 0.017000 0.594000 -0.070000
v 0.017000 0.682000 -0.070000
v 0.587000 0.682000 -0.070000
v 0.587000 0.594000 -0.070000
v 0.351000 0.594000 -0.070000
v 0.351000 0.594000 0.070000
v 0.351000 0.000000 -0.070000
v 0.351000 -0.000000 0.070000
v 0.253000 0.000000 -0.070000
v 0.253000 -0.000000 0.070000
v 0.253000 0.594000 -0.070000
v 0.253000 0.594000 0.070000
v 0.017000 0.594000 -0.070000
v 0.017000 0.594000 0.070000
v 0.017000 0.682000 -0.070000
v 0.017000 0.682000 0.070000
v 0.587000 0.682000 -0.070000
v 0.587000 0.682000 0.070000
v 0.587000 0.594000 -0.070000
v 0.587000 0.594000 0.070000
v 0.669000 0.000000 -0.070000
v 0.669000 -0.000000 0.070000
v 0.669000 0.449000 -0.070000
v 0.669000 0.449000 0.070000
v 0.758000 0.449000 -0.070000
v 0.758000 0.449000 0.070000
v 0.758000 0.000000 -0.070000
v 0.758000 -0.000000 0.070000
v 0.706865 0.532489 -0.070000
v 0.706865 0.532489 0.070000
v 0.700005 0.533912 -0.070000
v 0.700005 0.533912 0.070000
v 0.693484 0.536203 -0.070000
v 0.693484 0.536203 0.070000
v 0.687370 0.539296 -0.070000
v 0.687370 0.539296 0.070000
v 0.681729 0.543126 -0.070000
v 0.681729 0.543126 0.070000
v 0.676625 0.547625 -0.070000
v 0.676625 0.547625 0.070000
v 0.672126 0.552729 -0.070000
v 0.672126 0.552729 0.070000
v 0.668296 0.558370 -0.070000
v 0.668296 0.558370 0.070000
v 0.665203 0.564484 -0.070000
v 0.665203 0.564484 0.070000
v 0.662912 0.571005 -0.070000
v 0.662912 0.571005 0.070000
v 0.661489 0.577865 -0.070000
v 0.661489 0.577865 0.070000
v 0.661000 0.585000 -0.070000
v 0.661000 0.585000 0.070000
v 0.661489 0.592135 -0.070000
v 0.661489 0.592135 0.070000
v 0.662912 0.598995 -0.070000
v 0.662912 0.598995 0.070000
v 0.665203 0.605516 -0.070000
v 0.665203 0.605516 0.070000
v 0.668296 0.611630 -0.070000
v 0.668296 0.611630 0.070000
v 0.672126 0.617271 -0.070000
v 0.672126 0.617271 0.070000
v 0.676625 0.622375 -0.070000
v 0.676625 0.622375 0.070000
v 0.681729 0.626874 -0.070000
v 0.681729 0.626874 0.070000
v 0.687370 0.630704 -0.070000
v 0.687370 0.630704 0.070000
v 0.693484 0.633797 -0.070000
v 0.693484 0.633797 0.070000
v 0.700005 0.636088 -0.070000
v 0.700005 0.636088 0.070000
v 0.706865 0.637511 -0.070000
v 0.706865 0.637511 0.070000
v 0.714000 0.638000 -0.070000
v 0.714000 0.638000 0.070000
v 0.721135 0.637511 -0.070000
v 0.721135 0.637511 0.070000
v 0.727995 0.636088 -0.070000
v 0.727995 0.636088 0.070000
v 0.734516 0.633797 -0.070000
v 0.734516 0.633797 0.070000
v 0.740630 0.630704 -0.070000
v 0.740630 0.630704 0.070000
v 0.746271 0.626875 -0.070000
v 0.746271 0.626875 0.070000
v 0.751375 0.622375 -0.070000
v 0.751375 0.622375 0.070000
v 0.755874 0.617271 -0.070000
v 0.755874 0.617271 0.070000
v 0.759704 0.611630 -0.070000
v 0.759704 0.611630 0.070000
v 0.762797 0.605516 -0.070000
v 0.762797 0.605516 0.070000
v 0.765088 0.598995 -0.070000
v 0.765088 0.598995 0.070000
v 0.766511 0.592135 -0.070000
v 0.766511 0.592135 0.070000
v 0.767000 0.585000 -0.070000
v 0.767000 0.585000 0.070000
v 0.766511 0.577865 -0.070000
v 0.766511 0.577865 0.070000
v 0.765088 0.571005 -0.070000
v 0.765088 0.571005 0.070000
v 0.762797 0.564484 -0.070000
v 0.762797 0.564484 0.070000
v 0.759704 0.558370 -0.070000
v 0.759704 0.558370 0.070000
v 0.755875 0.552729 -0.070000
v 0.755875 0.552729 0.070000
v 0.751375 0.547625 -0.070000
v 0.751375 0.547625 0.070000
v 0.746271 0.543126 -0.070000
v 0.746271 0.543126 0.070000
v 0.740630 0.539296 -0.070000
v 0.740630 0.539296 0.070000
v 0.734516 0.536203 -0.070000
v 0.734516 0.536203 0.070000
v 0.727995 0.533912 -0.070000
v 0.727995 0.533912 0.070000
v 0.721135 0.532489 -0.070000
v 0.721135 0.532489 0.070000
v 0.714000 0.532000 -0.070000
v 0.714000 0.532000 0.070000
v 1.445000 0.000000 -0.070000
v 1.445000 -0.000000 0.070000
v 0.989000 0.525000 -0.070000
v 0.989000 0.525000 0.070000
v 0.989000 0.000000 -0.070000
v 0.989000 -0.000000 0.070000
v 0.897000 0.000000 -0.070000
v 0.897000 -0.000000 0.070000
v 0.897000 0.682000 -0.070000
v 0.897000 0.682000 0.070000
v 0.975000 0.682000 -0.070000
v 0.975000 0.682000 0.070000
v 1.437000 0.154000 -0.070000
v 1.437000 0.154000 0.070000
v 1.437000 0.682000 -0.070000
v 1.437000 0.682000 0.070000
v 1.529000 0.682000 -0.070000
v 1.529000 0.682000 0.070000
v 1.529000 0.000000 -0.070000
v 1.529000 -0.000000 0.070000
vn -0.0000 -0.0000 1.0000
vn -0.0000 -0.0000 -1.0000
vn 0.7071 -0.7071 -0.0000
vn -0.7071 -0.7071 -0.0000
vn -0.7071 0.7071 -0.0000
vn 0.7071 0.7071 -0.0000
vn -0.2679 -0.9634 -0.0000
vn -0.1361 -0.9907 -0.0000
vn -0.1360 -0.9907 -0.0000
vn -0.3923 -0.9198 -0.0000
vn -0.5076 -0.8616 -0.0000
vn -0.6127 -0.7903 -0.0000
vn -0.7903 -0.6127 -0.0000
vn -0.8616 -0.5076 -0.0000
vn -0.9198 -0.3923 -0.0000
vn -0.9634 -0.2679 -0.0000
vn -0.9907 -0.1360 -0.0000
vn -1.0000 -0.0000 -0.0000
vn -0.9907 -0.1361 -0.0000
vn -0.9907 0.1361 -0.0000
vn -0.9634 0.2679 -0.0000
vn -0.9907 0.1360 -0.0000
vn -0.9198 0.3923 -0.0000
vn -0.8616 0.5076 -0.0000
vn -0.7903 0.6127 -0.0000
vn -0.8616 0.5075 -0.0000
vn -0.6127 0.7903 -0.0000
vn -0.5076 0.8616 -0.0000
vn -0.3923 0.9198 -0.0000
vn -0.2679 0.9634 -0.0000
vn -0.1361 0.9907 -0.0000
vn -0.0000 1.0000 -0.0000
vn 0.1360 0.9907 -0.0000
vn 0.2679 0.9634 -0.0000
vn 0.3923 0.9198 -0.0000
vn 0.5075 0.8616 -0.0000
vn 0.6127 0.7903 -0.0000
vn 0.5076 0.8616 -0.0000
vn 0.7903 0.6127 -0.0000
vn 0.8616 0.5075 -0.0000
vn 0.9198 0.3923 -0.0000
vn 0.8616 0.5076 -0.0000
vn 0.9634 0.2679 -0.0000
vn 0.9907 0.1361 -0.0000
vn 1.0000 -0.0000 -0.0000
vn 0.9907 -0.1360 -0.0000
vn 0.9634 -0.2679 -0.0000
vn 0.9198 -0.3923 -0.0000
vn 0.8616 -0.5076 -0.0000
vn 0.7903 -0.6127 -0.0000
vn 0.6127 -0.7903 -0.0000
vn 0.5076 -0.8616 -0.0000
vn 0.3923 -0.9198 -0.0000
vn 0.2679 -0.9634 -0.0000
vn 0.1361 -0.9907 -0.0000
vn -0.0000 -1.0000 -0.0000
vn 0.3500 -0.9367 -0.0000
vn -0.4149 -0.9099 -0.0000
vn 0.3500 -0.9368 -0.0000
vn 0.4132 0.9106 -0.0000
vn -0.3518 0.9361 -0.0000
vn -0.3517 0.9361 -0.0000
vt 0.333333 0.000000
vt 0.555556 0.000000
vt 0.444444 0.000000
vt 0.111111 0.000000
vt 0.666667 0.000000
vt 0.888889 0.000000
vt 0.777778 0.000000
vt 1.000000 0.000000
vt 0.222222 0.000000
vt 0.000000 0.000000
vt 0.941176 0.000000
vt 0.980392 0.000000
vt 0.960784 0.000000
vt 0.431373 0.000000
vt 0.470588 0.000000
vt 0.450980 0.000000
vt 0.490196 0.000000
vt 0.411765 0.000000
vt 0.509804 0.000000
vt 0.392157 0.000000
vt 0.529412 0.000000
vt 0.372549 0.000000
vt 0.549020 0.000000
vt 0.352941 0.000000
vt 0.568627 0.000000
vt 0.588235 0.000000
vt 0.313726 0.000000
vt 0.607843 0.000000
vt 0.294118 0.000000
vt 0.627451 0.000000
vt 0.274510 0.000000
vt 0.647059 0.000000
vt 0.254902 0.000000
vt 0.235294 0.000000
vt 0.686275 0.000000
vt 0.215686 0.000000
vt 0.196078 0.000000
vt 0.705882 0.000000
vt 0.725490 0.000000
vt 0.176471 0.000000
vt 0.745098 0.000000
vt 0.156863 0.000000
vt 0.764706 0.000000
vt 0.137255 0.000000
vt 0.784314 0.000000
vt 0.117647 0.000000
vt 0.803922 0.000000
vt 0.098039 0.000000
vt 0.823529 0.000000
vt 0.078431 0.000000
vt 0.843137 0.000000
vt 0.058824 0.000000
vt 0.862745 0.000000
vt 0.039216 0.000000
vt 0.882353 0.000000
vt 0.019608 0.000000
vt 0.901961 0.000000
vt 0.921569 0.000000
vt 0.571429 0.000000
vt 0.857143 0.000000
vt 0.714286 0.000000
vt 0.428571 0.000000
vt 0.285714 0.000000
vt 0.142857 0.000000
vt 0.125000 1.000000
vt 0.000000 1.000000
vt 0.250000 1.000000
vt 0.125000 0.000000
vt 0.375000 1.000000
vt 0.250000 0.000000
vt 0.500000 1.000000
vt 0.375000 0.000000
vt 0.625000 1.000000
vt 0.500000 0.000000
vt 0.750000 1.000000
vt 0.625000 0.000000
vt 0.875000 1.000000
vt 0.750000 0.000000
vt 1.000000 1.000000
vt 0.875000 0.000000
vt 0.020833 1.000000
vt 0.041667 1.000000
vt 0.020833 0.000000
vt 0.062500 1.000000
vt 0.041667 0.000000
vt 0.083333 1.000000
vt 0.062500 0.000000
vt 0.104167 1.000000
vt 0.083333 0.000000
vt 0.104167 0.000000
vt 0.145833 1.000000
vt 0.166667 1.000000
vt 0.145833 0.000000
vt 0.187500 1.000000
vt 0.166667 0.000000
vt 0.208333 1.000000
vt 0.187500 0.000000
vt 0.229167 1.000000
vt 0.208333 0.000000
vt 0.229167 0.000000
vt 0.270833 1.000000
vt 0.291667 1.000000
vt 0.270833 0.000000
vt 0.312500 1.000000
vt 0.291667 0.000000
vt 0.333333 1.000000
vt 0.312500 0.000000
vt 0.354167 1.000000
vt 0.354167 0.000000
vt 0.395833 1.000000
vt 0.416667 1.000000
vt 0.395833 0.000000
vt 0.437500 1.000000
vt 0.416667 0.000000
vt 0.458333 1.000000
vt 0.437500 0.000000
vt 0.479167 1.000000
vt 0.458333 0.000000
vt 0.479167 0.000000
vt 0.520833 1.000000
vt 0.541667 1.000000
vt 0.520833 0.000000
vt 0.562500 1.000000
vt 0.541667 0.000000
vt 0.583333 1.000000
vt 0.562500 0.000000
vt 0.604167 1.000000
vt 0.583333 0.000000
vt 0.604167 0.000000
vt 0.645833 1.000000
vt 0.666667 1.000000
vt 0.645833 0.000000
vt 0.687500 1.000000
vt 0.708333 1.000000
vt 0.687500 0.000000
vt 0.729167 1.000000
vt 0.708333 0.000000
vt 0.729167 0.000000
vt 0.770833 1.000000
vt 0.791667 1.000000
vt 0.770833 0.000000
vt 0.812500 1.000000
vt 0.791667 0.000000
vt 0.833333 1.000000
vt 0.812500 0.000000
vt 0.854167 1.000000
vt 0.833333 0.000000
vt 0.854167 0.000000
vt 0.895833 1.000000
vt 0.916667 1.000000
vt 0.895833 0.000000
vt 0.937500 1.000000
vt 0.916667 0.000000
vt 0.958333 1.000000
vt 0.937500 0.000000
vt 0.979167 1.000000
vt 0.958333 0.000000
vt 0.979167 0.000000
vt 0.100000 1.000000
vt 0.200000 1.000000
vt 0.100000 0.000000
vt 0.300000 1.000000
vt 0.200000 0.000000
vt 0.400000 1.000000
vt 0.300000 0.000000
vt 0.400000 0.000000
vt 0.600000 1.000000
vt 0.700000 1.000000
vt 0.600000 0.000000
vt 0.800000 1.000000
vt 0.700000 0.000000
vt 0.900000 1.000000
vt 0.800000 0.000000
vt 0.900000 0.000000
s 0
usemtl Material.001
f 4/1/1 6/2/1 5/3/1
f 4/1/1 2/4/1 6/2/1
f 2/4/1 7/5/1 6/2/1
f 7/5/1 9/6/1 8/7/1
f 7/5/1 10/8/1 9/6/1
f 4/1/1 3/9/1 2/4/1
f 1/10/1 7/5/1 2/4/1
f 1/10/1 10/8/1 7/5/1
f 59/11/1 61/12/1 60/13/1
f 59/11/1 62/8/1 61/12/1
f 33/14/1 35/15/1 34/16/1
f 33/14/1 36/17/1 35/15/1
f 32/18/1 36/17/1 33/14/1
f 32/18/1 37/19/1 36/17/1
f 31/20/1 37/19/1 32/18/1
f 31/20/1 38/21/1 37/19/1
f 30/22/1 38/21/1 31/20/1
f 30/22/1 39/23/1 38/21/1
f 29/24/1 39/23/1 30/22/1
f 29/24/1 40/25/1 39/23/1
f 28/1/1 40/25/1 29/24/1
f 28/1/1 41/26/1 40/25/1
f 27/27/1 41/26/1 28/1/1
f 27/27/1 42/28/1 41/26/1
f 26/29/1 42/28/1 27/27/1
f 26/29/1 43/30/1 42/28/1
f 25/31/1 43/30/1 26/29/1
f 25/31/1 44/32/1 43/30/1
f 24/33/1 44/32/1 25/31/1
f 24/33/1 45/5/1 44/32/1
f 23/34/1 45/5/1 24/33/1
f 23/34/1 46/35/1 45/5/1
f 22/36/1 46/35/1 23/34/1
f 21/37/1 46/35/1 22/36/1
f 21/37/1 47/38/1 46/35/1
f 21/37/1 48/39/1 47/38/1
f 20/40/1 48/39/1 21/37/1
f 20/40/1 49/41/1 48/39/1
f 19/42/1 49/41/1 20/40/1
f 19/42/1 50/43/1 49/41/1
f 18/44/1 50/43/1 19/42/1
f 18/44/1 51/45/1 50/43/1
f 17/46/1 51/45/1 18/44/1
f 17/46/1 52/47/1 51/45/1
f 16/48/1 52/47/1 17/46/1
f 16/48/1 53/49/1 52/47/1
f 15/50/1 53/49/1 16/48/1
f 15/50/1 54/51/1 53/49/1
f 14/52/1 54/51/1 15/50/1
f 14/52/1 55/53/1 54/51/1
f 13/54/1 55/53/1 14/52/1
f 13/54/1 56/55/1 55/53/1
f 12/56/1 56/55/1 13/54/1
f 12/56/1 57/57/1 56/55/1
f 11/10/1 57/57/1 12/56/1
f 11/10/1 58/58/1 57/57/1
f 67/59/1 69/60/1 68/61/1
f 67/59/1 70/8/1 69/60/1
f 66/62/1 70/8/1 67/59/1
f 65/63/1 63/10/1 66/62/1
f 63/10/1 70/8/1 66/62/1
f 65/63/1 64/64/1 63/10/1
f 74/1/2 75/3/2 76/2/2
f 74/1/2 76/2/2 72/4/2
f 72/4/2 76/2/2 77/5/2
f 77/5/2 78/7/2 79/6/2
f 77/5/2 79/6/2 80/8/2
f 74/1/2 72/4/2 73/9/2
f 71/10/2 72/4/2 77/5/2
f 71/10/2 77/5/2 80/8/2
f 129/11/2 130/13/2 131/12/2
f 129/11/2 131/12/2 132/8/2
f 103/14/2 104/16/2 105/15/2
f 103/14/2 105/15/2 106/17/2
f 102/18/2 103/14/2 106/17/2
f 102/18/2 106/17/2 107/19/2
f 101/20/2 102/18/2 107/19/2
f 101/20/2 107/19/2 108/21/2
f 100/22/2 101/20/2 108/21/2
f 100/22/2 108/21/2 109/23/2
f 99/24/2 100/22/2 109/23/2
f 99/24/2 109/23/2 110/25/2
f 98/1/2 99/24/2 110/25/2
f 98/1/2 110/25/2 111/26/2
f 97/27/2 98/1/2 111/26/2
f 97/27/2 111/26/2 112/28/2
f 96/29/2 97/27/2 112/28/2
f 96/29/2 112/28/2 113/30/2
f 95/31/2 96/29/2 113/30/2
f 95/31/2 113/30/2 114/32/2
f 94/33/2 95/31/2 114/32/2
f 94/33/2 114/32/2 115/5/2
f 93/34/2 94/33/2 115/5/2
f 93/34/2 115/5/2 116/35/2
f 92/36/2 93/34/2 116/35/2
f 91/37/2 92/36/2 116/35/2
f 91/37/2 116/35/2 117/38/2
f 91/37/2 117/38/2 118/39/2
f 90/40/2 91/37/2 118/39/2
f 90/40/2 118/39/2 119/41/2
f 89/42/2 90/40/2 119/41/2
f 89/42/2 119/41/2 120/43/2
f 88/44/2 89/42/2 120/43/2
f 88/44/2 120/43/2 121/45/2
f 87/46/2 88/44/2 121/45/2
f 87/46/2 121/45/2 122/47/2
f 86/48/2 87/46/2 122/47/2
f 86/48/2 122/47/2 123/49/2
f 85/50/2 86/48/2 123/49/2
f 85/50/2 123/49/2 124/51/2
f 84/52/2 85/50/2 124/51/2
f 84/52/2 124/51/2 125/53/2
f 83/54/2 84/52/2 125/53/2
f 83/54/2 125/53/2 126/55/2
f 82/56/2 83/54/2 126/55/2
f 82/56/2 126/55/2 127/57/2
f 81/10/2 82/56/2 127/57/2
f 81/10/2 127/57/2 128/58/2
f 137/59/2 138/61/2 139/60/2
f 137/59/2 139/60/2 140/8/2
f 136/62/1 137/59/1 140/8/1
f 135/63/2 136/62/2 133/10/2
f 133/10/1 136/62/1 140/8/1
f 135/63/2 133/10/2 134/64/2
s 1
f 144/65/3 141/10/3 142/66/3
f 146/67/4 143/68/3 144/65/3
f 148/69/4 145/70/4 146/67/4
f 150/71/4 147/72/4 148/69/4
f 152/73/5 149/74/4 150/71/4
f 154/75/6 151/76/5 152/73/5
f 156/77/3 153/78/6 154/75/6
f 142/79/3 155/80/3 156/77/3
f 160/67/5 157/10/4 158/66/4
f 162/71/6 159/70/5 160/67/5
f 164/75/3 161/74/6 162/71/6
f 158/79/4 163/78/3 164/75/3
f 168/81/7 165/10/8 166/66/9
f 170/82/10 167/83/7 168/81/7
f 172/84/11 169/85/10 170/82/10
f 174/86/12 171/87/11 172/84/11
f 176/88/4 173/89/12 174/86/12
f 178/65/13 175/90/4 176/88/4
f 180/91/14 177/68/13 178/65/13
f 182/92/15 179/93/14 180/91/14
f 184/94/16 181/95/15 182/92/15
f 186/96/17 183/97/16 184/94/16
f 188/98/18 185/99/19 186/96/17
f 190/67/20 187/100/18 188/98/18
f 192/101/21 189/70/22 190/67/20
f 194/102/23 191/103/21 192/101/21
f 196/104/24 193/105/23 194/102/23
f 198/106/25 195/107/26 196/104/24
f 200/108/5 197/1/25 198/106/25
f 202/69/27 199/109/5 200/108/5
f 204/110/28 201/72/27 202/69/27
f 206/111/29 203/112/28 204/110/28
f 208/113/30 205/114/29 206/111/29
f 210/115/31 207/116/30 208/113/30
f 212/117/32 209/118/31 210/115/31
f 214/71/33 211/119/32 212/117/32
f 216/120/34 213/74/33 214/71/33
f 218/121/35 215/122/34 216/120/34
f 220/123/36 217/124/35 218/121/35
f 222/125/37 219/126/38 220/123/36
f 224/127/6 221/128/37 222/125/37
f 226/73/39 223/129/6 224/127/6
f 228/130/40 225/76/39 226/73/39
f 230/131/41 227/132/42 228/130/40
f 232/133/43 229/5/41 230/131/41
f 234/134/44 231/135/43 232/133/43
f 236/136/45 233/137/44 234/134/44
f 238/75/46 235/138/45 236/136/45
f 240/139/47 237/78/46 238/75/46
f 242/140/48 239/141/47 240/139/47
f 244/142/49 241/143/48 242/140/48
f 246/144/50 243/145/49 244/142/49
f 248/146/3 245/147/50 246/144/50
f 250/77/51 247/148/3 248/146/3
f 252/149/52 249/80/51 250/77/51
f 254/150/53 251/151/52 252/149/52
f 256/152/54 253/153/53 254/150/53
f 258/154/55 255/155/54 256/152/54
f 260/156/56 257/157/55 258/154/55
f 166/79/9 259/158/56 260/156/56
f 264/159/57 261/10/58 262/66/58
f 266/160/3 263/161/59 264/159/57
f 268/162/4 265/163/3 266/160/3
f 270/164/5 267/165/4 268/162/4
f 272/71/60 269/166/5 270/164/5
f 274/167/61 271/74/60 272/71/60
f 276/168/5 273/169/62 274/167/61
f 278/170/6 275/171/5 276/168/5
f 280/172/3 277/173/6 278/170/6
f 262/79/58 279/174/3 280/172/3
f 144/65/3 143/68/3 141/10/3
f 146/67/4 145/70/4 143/68/3
f 148/69/4 147/72/4 145/70/4
f 150/71/4 149/74/4 147/72/4
f 152/73/5 151/76/5 149/74/4
f 154/75/6 153/78/6 151/76/5
f 156/77/3 155/80/3 153/78/6
f 142/79/3 141/8/3 155/80/3
f 160/67/5 159/70/5 157/10/4
f 162/71/6 161/74/6 159/70/5
f 164/75/3 163/78/3 161/74/6
f 158/79/4 157/8/4 163/78/3
f 168/81/7 167/83/7 165/10/8
f 170/82/10 169/85/10 167/83/7
f 172/84/11 171/87/11 169/85/10
f 174/86/12 173/89/12 171/87/11
f 176/88/4 175/90/4 173/89/12
f 178/65/13 177/68/13 175/90/4
f 180/91/14 179/93/14 177/68/13
f 182/92/15 181/95/15 179/93/14
f 184/94/16 183/97/16 181/95/15
f 186/96/17 185/99/19 183/97/16
f 188/98/18 187/100/18 185/99/19
f 190/67/20 189/70/22 187/100/18
f 192/101/21 191/103/21 189/70/22
f 194/102/23 193/105/23 191/103/21
f 196/104/24 195/107/26 193/105/23
f 198/106/25 197/1/25 195/107/26
f 200/108/5 199/109/5 197/1/25
f 202/69/27 201/72/27 199/109/5
f 204/110/28 203/112/28 201/72/27
f 206/111/29 205/114/29 203/112/28
f 208/113/30 207/116/30 205/114/29
f 210/115/31 209/118/31 207/116/30
f 212/117/32 211/119/32 209/118/31
f 214/71/33 213/74/33 211/119/32
f 216/120/34 215/122/34 213/74/33
f 218/121/35 217/124/35 215/122/34
f 220/123/36 219/126/38 217/124/35
f 222/125/37 221/128/37 219/126/38
f 224/127/6 223/129/6 221/128/37
f 226/73/39 225/76/39 223/129/6
f 228/130/40 227/132/42 225/76/39
f 230/131/41 229/5/41 227/132/42
f 232/133/43 231/135/43 229/5/41
f 234/134/44 233/137/44 231/135/43
f 236/136/45 235/138/45 233/137/44
f 238/75/46 237/78/46 235/138/45
f 240/139/47 239/141/47 237/78/46
f 242/140/48 241/143/48 239/141/47
f 244/142/49 243/145/49 241/143/48
f 246/144/50 245/147/50 243/145/49
f 248/146/3 247/148/3 245/147/50
f 250/77/51 249/80/51 247/148/3
f 252/149/52 251/151/52 249/80/51
f 254/150/53 253/153/53 251/151/52
f 256/152/54 255/155/54 253/153/53
f 258/154/55 257/157/55 255/155/54
f 260/156/56 259/158/56 257/157/55
f 166/79/9 165/8/8 259/158/56
f 264/159/57 263/161/59 261/10/58
f 266/160/3 265/163/3 263/161/59
f 268/162/4 267/165/4 265/163/3
f 270/164/5 269/166/5 267/165/4
f 272/71/60 271/74/60 269/166/5
f 274/167/61 273/169/62 271/74/60
f 276/168/5 275/171/5 273/169/62
f 278/170/6 277/173/6 275/171/5
f 280/172/3 279/174/3 277/173/6
f 262/79/58 261/8/58 279/174/3
