# Blender 4.4.1
# www.blender.org
mtllib Spawn.mtl
o Cube.002
v -1.258182 0.774675 0.400000
v -1.258182 2.774675 0.400000
v -1.258182 0.774675 -0.400000
v -1.258182 2.774675 -0.400000
v 1.241818 0.774675 0.400000
v 1.241818 2.774675 0.400000
v 1.241818 0.774675 -0.400000
v 1.241818 2.774675 -0.400000
v 1.000000 2.007094 -1.000000
v 1.000000 0.007094 -1.000000
v 1.000000 2.007094 1.000000
v 1.000000 0.007094 1.000000
v -1.000000 2.007094 -1.000000
v -1.000000 0.007094 -1.000000
v -1.000000 2.007094 1.000000
v -1.000000 0.007094 1.000000
v 0.389421 0.774675 1.250000
v 0.389421 2.774675 1.250000
v -0.410579 0.774675 1.250000
v -0.410579 2.774675 1.250000
v 0.389421 0.774675 -1.250000
v 0.389421 2.774675 -1.250000
v -0.410579 0.774675 -1.250000
v -0.410579 2.774675 -1.250000
vn -1.0000 -0.0000 -0.0000
vn -0.0000 -0.0000 -1.0000
vn 1.0000 -0.0000 -0.0000
vn -0.0000 -0.0000 1.0000
vn -0.0000 -1.0000 -0.0000
vn -0.0000 1.0000 -0.0000
vt 0.285156 0.039192
vt 0.160221 0.164127
vt 0.160221 0.039192
vt 0.285156 0.164127
vt 0.160221 0.289062
vt 0.285156 0.289062
vt 0.160221 0.413998
vt 0.285156 0.413998
vt 0.160221 0.538933
vt 0.035286 0.413998
vt 0.035286 0.289062
vt 0.410091 0.289062
vt 0.941406 0.292969
vt 0.816471 0.417904
vt 0.816471 0.292969
vt 0.691536 0.542839
vt 0.691536 0.417904
vt 0.816471 0.043099
vt 0.691536 0.168034
vt 0.691536 0.043099
vt 0.691536 0.292969
vt 0.566601 0.417904
vt 0.566601 0.292969
vt 0.816471 0.168034
vt 0.535156 0.500130
vt 0.410221 0.625065
vt 0.410221 0.500130
vt 0.535156 0.625065
vt 0.410221 0.750000
vt 0.535156 0.750000
vt 0.410221 0.874935
vt 0.535156 0.874935
vt 0.410221 0.999870
vt 0.285286 0.874935
vt 0.285286 0.750000
vt 0.660091 0.750000
vt 0.285156 0.538933
vt 0.410091 0.413998
vt 0.941406 0.417904
vt 0.816471 0.542839
vt 0.535156 0.999870
vt 0.660091 0.874935
s 0
usemtl Material
f 2/1/1 3/2/1 1/3/1
f 4/4/2 7/5/2 3/2/2
f 8/6/3 5/7/3 7/5/3
f 6/8/4 1/9/4 5/7/4
f 7/5/5 1/10/5 3/11/5
f 4/12/6 6/8/6 8/6/6
f 13/13/6 11/14/6 9/15/6
f 11/14/4 16/16/4 12/17/4
f 15/18/1 14/19/1 16/20/1
f 10/21/5 16/22/5 14/23/5
f 9/15/3 12/17/3 10/21/3
f 13/24/2 10/21/2 14/19/2
f 18/25/4 19/26/4 17/27/4
f 20/28/1 23/29/1 19/26/1
f 24/30/2 21/31/2 23/29/2
f 22/32/3 17/33/3 21/31/3
f 23/29/5 17/34/5 19/35/5
f 20/36/6 22/32/6 24/30/6
f 2/1/1 4/4/1 3/2/1
f 4/4/2 8/6/2 7/5/2
f 8/6/3 6/8/3 5/7/3
f 6/8/4 2/37/4 1/9/4
f 7/5/5 5/7/5 1/10/5
f 4/12/6 2/38/6 6/8/6
f 13/13/6 15/39/6 11/14/6
f 11/14/4 15/40/4 16/16/4
f 15/18/1 13/24/1 14/19/1
f 10/21/5 12/17/5 16/22/5
f 9/15/3 11/14/3 12/17/3
f 13/24/2 9/15/2 10/21/2
f 18/25/4 20/28/4 19/26/4
f 20/28/1 24/30/1 23/29/1
f 24/30/2 22/32/2 21/31/2
f 22/32/3 18/41/3 17/33/3
f 23/29/5 21/31/5 17/34/5
f 20/36/6 18/42/6 22/32/6
