# Blender 4.1.1
# www.blender.org
mtllib Spawn.mtl
o Cube
v 1.140000 2.000000 -1.000000
v 1.140000 0.000000 -1.000000
v 1.140000 2.000000 1.000000
v 1.140000 0.000000 1.000000
v -0.860000 2.000000 -1.000000
v -0.860000 0.000000 -1.000000
v -0.860000 2.000000 1.000000
v -0.860000 0.000000 1.000000
vn -0.0000 1.0000 -0.0000
vn -0.0000 -0.0000 1.0000
vn -1.0000 -0.0000 -0.0000
vn -0.0000 -1.0000 -0.0000
vn 1.0000 -0.0000 -0.0000
vn -0.0000 -0.0000 -1.0000
vt 0.409958 0.602970
vt 0.670032 0.340849
vt 0.671055 0.601946
vt 0.407911 0.080775
vt 0.669008 0.079751
vt 0.408934 0.341872
vt 0.148861 0.603993
vt 0.147837 0.342896
vt 0.248988 0.954593
vt 0.041298 0.746903
vt 0.248988 0.746903
vt 0.931129 0.339825
vt 0.932153 0.600923
vt 0.672079 0.863044
vt 0.410982 0.864067
vt 0.041298 0.954593
s 0
usemtl Material
f 5/1/1 3/2/1 1/3/1
f 3/2/2 8/4/2 4/5/2
f 7/6/3 6/7/3 8/8/3
f 2/9/4 8/10/4 6/11/4
f 1/3/5 4/12/5 2/13/5
f 5/1/6 2/14/6 6/15/6
f 5/1/1 7/6/1 3/2/1
f 3/2/2 7/6/2 8/4/2
f 7/6/3 5/1/3 6/7/3
f 2/9/4 4/16/4 8/10/4
f 1/3/5 3/2/5 4/12/5
f 5/1/6 1/3/6 2/14/6
